<svg id="图层_1" data-name="图层 1" xmlns="http://www.w3.org/2000/svg" viewBox="0 0 138.85 105.503"><defs><style>.cls-1,.cls-4{fill:#194e9c;}.cls-1,.cls-10,.cls-9{fill-rule:evenodd;}.cls-2,.cls-5,.cls-6,.cls-7,.cls-8{fill:none;stroke-miterlimit:22.926;}.cls-2{stroke:#194a9b;stroke-width:2.044px;}.cls-3{fill:#fff;}.cls-5,.cls-6,.cls-7,.cls-8{stroke:#194e9c;}.cls-5{stroke-width:1.107px;}.cls-6{stroke-width:1.112px;}.cls-7{stroke-width:1.108px;}.cls-8{stroke-width:1.111px;}.cls-9{fill:#4d4144;}.cls-10{fill:#fe0709;}</style></defs><path class="cls-1" d="M32.623,64.506h74.012a35.472,35.472,0,0,1-5.5,8.02H38.074a25.319,25.319,0,0,1-5.451-8.02"/><path class="cls-2" d="M69.425,1.022c37.772,0,68.4,23.165,68.4,51.729s-30.631,51.73-68.4,51.73-68.4-23.165-68.4-51.73S31.653,1.022,69.425,1.022Z"/><polyline class="cls-1" points="44.776 56.602 47.884 46.039 52.08 46.039 50.265 52.539 51.667 52.539 53.6 46.039 57.817 46.039 54.823 56.602 50.536 56.602 51.275 53.793 49.859 53.793 49.103 56.602 44.776 56.602"/><polyline class="cls-1" points="59.313 46.082 56.136 56.695 66.145 56.695 69.072 46.082 64.96 46.082 62.191 55.377 60.742 55.377 63.401 46.082 59.313 46.082"/><path class="cls-1" d="M39.705,59.956l34.665.078c2.366-1.67,4.789-5.265,4.156-7.8-.837-1.63-2.417-2.637-5.272-4.926q-1.491-1.659-3.12-3.182c-2.982-1.913-5.932-3.909-8.835-6.02-1.7-1.3-1.005-3.1,2.515-2.661A76.313,76.313,0,0,1,89.44,41.631c1.556.851,1.07,1.25-.2,1.4l-7.939-.07c-1.864.128-3.1,1.148-4.33,3.188h4.54L77.448,60.034h5.114l4.022-13.8h2.98a43.751,43.751,0,0,0,5.03-5.574c1.294-2.2,1.2-4.731-1.2-6.031-5.358-2.514-11.323-3.032-15.757-3.209-7.285.2-12.8.757-15.537,2.341l-1.446,1.221c-4.534-.018-6.809,1.823-4.938,4.169,1.212,1.611,6.168,3.406,12.156,5.823,4.608,1.544,5.771,5.111,3.168,8.6-1.8,2.58-5.3,4.028-10.348,4.444a91.716,91.716,0,0,1-16.25-.277,21.628,21.628,0,0,0-4.734,2.213"/><path class="cls-3" d="M42.314,69.015,42.362,69c.047.039.07.161.07.369,0,.068-.028.105-.086.109a1.254,1.254,0,0,1-.469-.1s-.008-.012-.022-.025a.393.393,0,0,1,.077-.065,1.978,1.978,0,0,1,.352-.239c.016,0,.024-.008.024-.026h.006m.118-.789a.369.369,0,0,1-.266.324.128.128,0,0,0-.062.038l-.235.142a.739.739,0,0,0-.2.1.264.264,0,0,1,0-.129c0-.052.016-.118.032-.2s.069-.135.194-.174a1.033,1.033,0,0,0,.312-.1.1.1,0,0,0,.087-.1.692.692,0,0,0-.055-.252.784.784,0,0,0-.289-.239c-.109-.052-.143-.158-.1-.317a.285.285,0,0,1,.07-.162.316.316,0,0,1,.241-.122.223.223,0,0,1,.164.071.341.341,0,0,1,.095.277.329.329,0,0,0,.023.13A4.708,4.708,0,0,0,42.432,68.226Zm3.443-.542a2.011,2.011,0,0,1,.267-1.176.043.043,0,0,1,.006-.027A.089.089,0,0,0,46.1,66.4a3.748,3.748,0,0,0-.959-.123,2.705,2.705,0,0,0-.6.123,4.663,4.663,0,0,1-.672.09.3.3,0,0,0-.116.02q-.117.045-.117.129a5.368,5.368,0,0,1-.008,1.26,5.006,5.006,0,0,0-.087.673.478.478,0,0,1-.022.142,1.681,1.681,0,0,1-.259.788.559.559,0,0,0-.164.311l-.006.012h-.04V69.81l-.008-.013a.124.124,0,0,0-.007-.025c-.079-.38-.084-.612-.016-.7q.03-.35.039-.789c.016-.543.032-.839.046-.886a.7.7,0,0,1,.126-.355c.109-.181.15-.285.125-.31a1.163,1.163,0,0,0-.7-.136,12.033,12.033,0,0,0-1.335.3c-.208.057-.315.12-.32.188a10.394,10.394,0,0,0,.133,2.055c0,.052-.114.16-.344.323-.114.065-.191.106-.234.124-.177.055-.268.105-.273.148s.057.1.172.181a.8.8,0,0,0,.352.187l.4-.342a2.329,2.329,0,0,0,.257-.2,1.56,1.56,0,0,1,.249-.129.639.639,0,0,1,.164.156,3.892,3.892,0,0,0,.876.478c.082.026.126.051.132.078s-.138.174-.413.407a.426.426,0,0,0-.126.1.442.442,0,0,1-.054.051,1.41,1.41,0,0,0-.134.143c0,.031.035.047.1.052a2.816,2.816,0,0,0,.929-.33.21.21,0,0,0,.125-.161,4.723,4.723,0,0,1,.523-.99.722.722,0,0,1,.109-.174c0-.005.005-.013.016-.026a6.384,6.384,0,0,1,.578-.381.125.125,0,0,0,.031-.013l.054-.032a.944.944,0,0,0,.289-.091q.056-.058.039-.291a.351.351,0,0,0-.046-.155.093.093,0,0,0-.087-.039c-.312.026-.492.045-.539.058a.067.067,0,0,1-.077-.064.378.378,0,0,1,.211-.35q.421-.213.46-.361a.262.262,0,0,1,.008-.071c0-.121-.07-.183-.211-.188-.109.013-.221.03-.336.052-.03,0-.049-.026-.055-.078l.009-.188a.3.3,0,0,1,.218-.283,1.077,1.077,0,0,1,.336-.065.272.272,0,0,1,.164.052q.093.057.141.543V67.3q.006,1.746.055,2.133c.014.31.022.576.022.8a.3.3,0,0,1-.046.181,1.919,1.919,0,0,1-.743.013c-.281-.031-.421-.027-.421.012a.4.4,0,0,0,.055.11,3.239,3.239,0,0,0,.921.427,4.488,4.488,0,0,1,.718.213,1.016,1.016,0,0,0,.275.065c.077,0,.116-.033.116-.1a.088.088,0,0,0-.031-.058,1.065,1.065,0,0,1-.039-.258,15.172,15.172,0,0,1-.117-2.166,3.281,3.281,0,0,0-.04-.459C45.867,68.033,45.87,67.856,45.875,67.684Z"/><path class="cls-3" d="M52.971,69.566c-.1,0-.206-.01-.317-.019-.158,0-.236.031-.23.1a2.838,2.838,0,0,0,.673.466c.064.029.172.087.326.172.236.076.366.117.388.121.047,0,.083-.04.111-.121a.845.845,0,0,0-.08-.517.128.128,0,0,0-.111-.07c-.078-.013-.164-.03-.253-.051a2.857,2.857,0,0,0-.507-.077m-1.354-1.258a.239.239,0,0,1,.008-.05c.015-.039.037-.1.062-.185s.088-.124.2-.129a.848.848,0,0,1,.1.014.168.168,0,0,1,.119.178.625.625,0,0,1-.246.511.627.627,0,0,0-.1.02c-.02,0-.05.009-.086.018a.106.106,0,0,1-.12-.121.4.4,0,0,1,.056-.147A.766.766,0,0,1,51.617,68.308Zm-.792-.121a.276.276,0,0,1,.214-.114.358.358,0,0,1,.166.025.634.634,0,0,1-.087.4.3.3,0,0,1-.151.1c-.095,0-.142-.055-.142-.165Zm-.6.109a.2.2,0,0,1,.183.141c.032.08.058.148.079.2,0,.018-.024.036-.071.058-.031.005-.069.009-.111.013a.211.211,0,0,1-.166-.084.322.322,0,0,1-.072-.2.118.118,0,0,1,.033-.089A.366.366,0,0,1,50.222,68.3Zm2.29-.951a.14.14,0,0,0,.1-.032l-.008-.249A.644.644,0,0,0,52.5,66.9a.486.486,0,0,0-.206-.141.755.755,0,0,0-.2.057.061.061,0,0,0-.039.013l-.094.02a3.118,3.118,0,0,0-.5.056.6.6,0,0,0-.1.02c-.047,0-.073-.025-.078-.076l.094-.493c.016-.067.037-.139.064-.217,0-.012-.019-.029-.056-.051a.767.767,0,0,0-.261-.07.373.373,0,0,0-.159.058.625.625,0,0,0-.064.21,1.885,1.885,0,0,1-.047.237.47.47,0,0,1-.023.159l-.088.3a.894.894,0,0,1-.4.12,2.707,2.707,0,0,0-.609.186c-.017,0-.023,0-.023.006l-.105-.1c-.078.064-.117.109-.117.134a.1.1,0,0,0,.023.057c.032.056.061.105.088.148a.3.3,0,0,0,.039.082.132.132,0,0,0,.111.077,4.717,4.717,0,0,1,.8-.115q.07,0,.078.057a.185.185,0,0,1-.07.14,4.588,4.588,0,0,1-.911.25c-.158.038-.24.085-.246.14a1.6,1.6,0,0,0,.42.715c.048.042.117.1.206.172a.721.721,0,0,0,.23.127,3.138,3.138,0,0,0,.4-.121q.839-.294,1.084-.013a.373.373,0,0,0,.475.039.106.106,0,0,1,.04-.039c.052-.063.14-.178.262-.344a2.678,2.678,0,0,1,.181-.243,1,1,0,0,1,.278-.408.422.422,0,0,0,.063-.108c0-.039-.058-.087-.175-.147a3.3,3.3,0,0,0-1.457-.185c-.084.013-.133.02-.15.025a.078.078,0,0,1-.086-.083c0-.063.042-.1.125-.114a.757.757,0,0,0,.152-.033,1.47,1.47,0,0,1,.308-.057Zm-1.553,2.5a.592.592,0,0,1-.119-.141c0-.013.011-.021.032-.026l.515-.108c.079.064.161.134.245.211a.292.292,0,0,1,.041.057.04.04,0,0,1-.017.032q-.577.02-.665.006A.135.135,0,0,1,50.959,69.841Zm.373.516a1.023,1.023,0,0,0,.3-.152.652.652,0,0,1,.215-.16c.02,0,.052.03.094.089a.821.821,0,0,1,.167.435.277.277,0,0,1-.072.134.75.75,0,0,1-.411.082c-.6,0-.961-.078-1.077-.236a1.163,1.163,0,0,1-.127-.67.238.238,0,0,1,.031-.141c.016-.025.05-.038.1-.038s.111.049.142.147a.926.926,0,0,0,.214.409c.068.1.132.155.19.159h.031A.5.5,0,0,1,51.332,70.357Zm1.172.933c.031-.005.1-.009.2-.013a.667.667,0,0,0,.262-.039c.031-.013.048-.031.048-.057a1,1,0,0,0-.246-.543.584.584,0,0,1-.119-.147.789.789,0,0,0-.237-.223q0-.057-.4-.434-.094-.077-.207-.153c-.047-.025-.073-.049-.078-.07s.017-.04.055-.045a.371.371,0,0,0,.126-.019c.064-.013.1-.038.1-.077a.564.564,0,0,0-.476-.319,3.265,3.265,0,0,0-.855.115l-.062.006a2.547,2.547,0,0,0-.556.109,1.275,1.275,0,0,1-.324.038c-.079,0-.125.02-.134.058a3.031,3.031,0,0,1,.189.313c0,.029-.063.08-.189.152a.53.53,0,0,0-.183.109,2.151,2.151,0,0,0-.373.319,1.262,1.262,0,0,0-.15.179.061.061,0,0,0-.024.051c0,.038.071.085.215.141a3.567,3.567,0,0,0,.388.114c.078,0,.119-.027.119-.083a.409.409,0,0,1,.063-.21,1.125,1.125,0,0,1,.15-.306.056.056,0,0,0,.023-.045c.08-.14.133-.213.16-.218.047,0,.086.076.119.224.015.107.025.191.031.256a1.184,1.184,0,0,0,.379.657.441.441,0,0,0,.111.026,4.139,4.139,0,0,0,.651.056c.083,0,.393.022.925.065a1.337,1.337,0,0,0-.142-.007C52.2,71.27,52.351,71.277,52.5,71.29Zm-3.279-4.532a.525.525,0,0,0-.294-.178.28.28,0,0,0-.2.127c-.037.051-.077.1-.119.159a1.163,1.163,0,0,0-.261.345,1.041,1.041,0,0,0-.207.313,1.883,1.883,0,0,1-.133.261.193.193,0,0,1-.017.052c0,.042.025.065.072.069a1.2,1.2,0,0,0,.57-.306,2.9,2.9,0,0,1,.436-.306.33.33,0,0,0-.08.058c.259-.218.393-.352.4-.4S49.336,66.848,49.225,66.758Zm-.538,3.427a1.018,1.018,0,0,1,.134-.567,2.136,2.136,0,0,0,.118-.415c-.014-.027-.071-.056-.166-.09-.252-.064-.354-.166-.3-.307a.033.033,0,0,1,.007-.025,3.235,3.235,0,0,1,.349-.332s.01-.006.032-.032c.064-.055.106-.094.126-.114.221-.132.338-.26.349-.384,0-.038-.069-.111-.206-.216a.464.464,0,0,0-.182-.083,3.389,3.389,0,0,0-.4.376c-.222.319-.341.488-.357.5a.879.879,0,0,0-.158.185c-.079.076-.156.154-.23.23-.015.017-.05.051-.1.1-.507.434-.762.73-.768.887,0,.038.045.058.134.058a.369.369,0,0,0,.1-.02,3.6,3.6,0,0,0,.807-.344c.064-.042.1-.065.1-.07a.2.2,0,0,0,.062-.013.1.1,0,0,1,.08.051c.047.195.058.309.031.338a3.66,3.66,0,0,0-.07,1.028.264.264,0,0,0,.031.153.476.476,0,0,0,.269.064c.116,0,.177-.062.183-.185A2.862,2.862,0,0,1,48.687,70.185Z"/><path class="cls-3" d="M59,69.311a.021.021,0,0,0-.016.012c-.454.13-.84.228-1.16.3s-.57.122-.738.174l-.218.027c-.119,0-.182.02-.187.063a.338.338,0,0,0,.13.271.182.182,0,0,0,.122.039,13.9,13.9,0,0,1,2.221-.4.042.042,0,0,1,.025-.006c.048.026.074.123.08.29a1.459,1.459,0,0,1-.08.587c-.022.043-.1.076-.219.1a.834.834,0,0,0-.147.02c-.037,0-.119-.009-.243-.013l-.519-.084a3.46,3.46,0,0,0-.527-.058c0,.029.044.081.13.155a4.249,4.249,0,0,0,1.33.49.222.222,0,0,1,.065.013l.389.039.048.013a.175.175,0,0,0,.147-.065c0-.013.045-.185.137-.516,0-.017.016-.118.049-.3,0-.005,0-.009.009-.014a3.083,3.083,0,0,1,.007-.683,2.818,2.818,0,0,1,.892-.071c.071,0,.281.043.633.116a1.032,1.032,0,0,0,.422.07.193.193,0,0,0,.048-.192,4.08,4.08,0,0,1-.332-.356c-.033-.017-.059-.032-.081-.045q-1.242-.039-1.517-.006l-.122.006a.047.047,0,0,0-.024-.026.238.238,0,0,0-.016-.083c0-.043.028-.076.081-.1l.584-.258c.064-.04.1-.078.1-.117s-.042-.079-.13-.122a1.325,1.325,0,0,1-.145-.065,1.883,1.883,0,0,0-.8-.109q-.048,0-.576.136l-.42.09c-.162.03-.325.066-.487.109q-.009,0-.009.006a5.728,5.728,0,0,1-.591.084.179.179,0,0,0-.09.02c-.016,0-.026.021-.031.052a3.052,3.052,0,0,0,.332.322.208.208,0,0,0,.13.052.5.5,0,0,0,.194-.078,4.683,4.683,0,0,1,1.159-.438,1.947,1.947,0,0,0,.276-.1,1.913,1.913,0,0,1,.243-.038.21.21,0,0,0,.033.018.39.39,0,0,1-.121.233.575.575,0,0,1-.325.1c-.227,0-.355.032-.381.084,0,.026.071.1.21.22l.025.039M59,67.226a1.527,1.527,0,0,1,.6-.077.463.463,0,0,1,.243.058c.054.03.085.112.09.245a.674.674,0,0,1-.163.536h-.048a1.02,1.02,0,0,0-.154-.123q-1.119.155-1.208.155l-.04-.032a.12.12,0,0,0-.017-.033c-.039-.284-.043-.436-.017-.458a.353.353,0,0,1,.139-.058,2.687,2.687,0,0,0,.307-.116ZM54.787,70.6a.32.32,0,0,0,.21.012,2.133,2.133,0,0,0,.309-.109l.649-.374c0-.013.026-.029.063-.045a1.283,1.283,0,0,0,.22-.174.381.381,0,0,0,.065-.239,1.429,1.429,0,0,1,.348-.6,3.472,3.472,0,0,1,.277-.355c.048-.069.1-.135.145-.2.113-.206.184-.343.212-.407.015-.017.034-.036.056-.058a.383.383,0,0,1,.049-.064.5.5,0,0,1,.1-.2s.006-.007.017-.007a.066.066,0,0,1,.023.007,1.951,1.951,0,0,0,.592.7c.032,0,.3-.062.795-.187a2.31,2.31,0,0,1,.941-.033,1.277,1.277,0,0,1,.25.072.319.319,0,0,0,.179-.039.8.8,0,0,1,.106-.18s0-.009.016-.014a2.493,2.493,0,0,1,.535-.942c0-.043-.087-.1-.243-.181a2.222,2.222,0,0,0-1.289-.1,8.84,8.84,0,0,0-1.581.3.35.35,0,0,0-.057-.007.953.953,0,0,1,.04-.239c.017-.012.036-.025.057-.038.005,0,.113-.028.325-.084A2.511,2.511,0,0,1,59,66.729a4.754,4.754,0,0,1,1.282-.2c.037,0,.059-.023.065-.07a.476.476,0,0,0-.13-.213.3.3,0,0,1-.049-.072.309.309,0,0,0-.106-.115A.229.229,0,0,0,59.911,66a3.431,3.431,0,0,0-.47.1,7.28,7.28,0,0,0-.891.168q-.756.1-.811.09a1.557,1.557,0,0,1-.2-.064l-.113-.013c-.082,0-.13.016-.145.052a2.049,2.049,0,0,0-.13.722c-.006.039-.014.084-.025.136a.873.873,0,0,1-.049.167l-.048.194a.44.44,0,0,0-.065.167l-.259.562a.045.045,0,0,0-.025.013c-.033.077-.073.161-.122.251a.37.37,0,0,1-.032.058,5.158,5.158,0,0,0-.3.5,5.1,5.1,0,0,1-.681.781.033.033,0,0,1-.008.026.233.233,0,0,0-.082.071Q54.795,70.485,54.787,70.6Zm3.973-2.762a1.256,1.256,0,0,0,.673-.161A.271.271,0,0,0,59.5,67.5a.137.137,0,0,0-.154-.156,2.732,2.732,0,0,0-.657.156c-.081.013-.114.019-.1.019a.554.554,0,0,0-.147.039.093.093,0,0,0-.04.07,1.256,1.256,0,0,0,.09.136l.023.038A.6.6,0,0,0,58.76,67.839Z"/><path class="cls-3" d="M65.078,66.169c-.124.038-.251.079-.38.125q-.09.026-.09.081c0,.113.085.218.255.318a.644.644,0,0,0,.379.15.154.154,0,0,0,.1-.05,2.322,2.322,0,0,1,.313-.549c.015-.054.033-.11.052-.168,0-.025-.016-.039-.052-.044a4.493,4.493,0,0,0-.544.125.06.06,0,0,0-.038.012m-.851.517a.891.891,0,0,0-.32-.192.368.368,0,0,0-.232.074q-.133.132-.03.567c0,.063.1.1.3.118a2.08,2.08,0,0,1,.418.026c.193,0,.29-.054.29-.163C64.652,67.042,64.511,66.9,64.227,66.686ZM64.205,69.4a9.819,9.819,0,0,0-1.075.3q-.044.075.172.361a10.033,10.033,0,0,1,2.008-.411h.015c.045,0,.068.034.068.1v.56c-.046.113-.086.225-.12.337a.855.855,0,0,0-.128.088c-.149.012-.293.028-.433.05a.131.131,0,0,0-.044-.007,5.633,5.633,0,0,1-.657-.131.092.092,0,0,0-.03.05q0,.138.344.286a5.209,5.209,0,0,0,1.269.4H65.6a.159.159,0,0,0,.119-.055,2.312,2.312,0,0,0,.284-1,2.247,2.247,0,0,1,.127-.791,1.261,1.261,0,0,1,.44-.044,2.414,2.414,0,0,1,.686.031c.285.076.434.113.449.113.079,0,.122-.046.127-.137a.757.757,0,0,0-.046-.175c-.014-.054-.026-.11-.036-.169a.272.272,0,0,0-.173-.223,5.905,5.905,0,0,0-1.5.055c-.05,0-.085-.031-.1-.093s-.008-.108-.008-.162a2.526,2.526,0,0,1,.269-.087.713.713,0,0,0,.238-.094,3.859,3.859,0,0,1,.352-.212,9.518,9.518,0,0,0,1.193-.074l.149-.019a.093.093,0,0,0,.1-.094q0-.281-1.172-.891a.066.066,0,0,0-.029-.018c-.065-.017-.331-.052-.8-.107a.055.055,0,0,1-.052-.043s.127-.127.381-.368a2.331,2.331,0,0,1,.29-.256c.18-.091.269-.15.269-.174a.994.994,0,0,0-.574-.405h-.008c-.06,0-.147.073-.261.218a6.483,6.483,0,0,1-.828,1.035,4.047,4.047,0,0,1-.679.268q-.367.119-1.106.411c-.163.012-.249.048-.254.106v.025a.2.2,0,0,0,.06.137.193.193,0,0,0,.1.049,2.216,2.216,0,0,1,.746-.149q.739-.206,1.105-.268a6.91,6.91,0,0,1,1.276-.268.053.053,0,0,1,.031-.006.874.874,0,0,1,.3.087c.105.05.157.114.157.194a.386.386,0,0,1-.164.292,1.271,1.271,0,0,1-.306.144,4.3,4.3,0,0,0-.881-.25,10.383,10.383,0,0,0-1.807.474.111.111,0,0,0-.052.013.078.078,0,0,0-.066.081.483.483,0,0,0,.261.373.316.316,0,0,0,.134.044,1.436,1.436,0,0,0,.4-.224,5.5,5.5,0,0,1,.53-.149,1.2,1.2,0,0,0,.194-.157.453.453,0,0,1,.344-.174c.059,0,.089.031.089.093,0,.038-.055.114-.164.231a.642.642,0,0,1-.426.149c-.065.026-.1.059-.1.1l.149.287c0,.037-.042.068-.128.094A6.081,6.081,0,0,0,64.205,69.4Zm-1.829-.748c0,.074.14.146.418.212a1.706,1.706,0,0,0,.314.056c.124,0,.189-.041.194-.124a.1.1,0,0,0-.008-.026,1.2,1.2,0,0,1-.007-.641c.005-.038-.032-.059-.112-.063a1.022,1.022,0,0,0-.53.218.763.763,0,0,0-.269.355Z"/><path class="cls-3" d="M76.073,67.328a1.515,1.515,0,0,0,.33,0,.042.042,0,0,1,.036-.022.287.287,0,0,0-.1-.245,1.525,1.525,0,0,0-.534-.285.916.916,0,0,0-.2-.117s-.014-.006-.029-.017c-.063.023-.1.046-.109.072s-.01.181-.015.475c.03.067.107.1.234.1a.158.158,0,0,0,.059-.011.1.1,0,0,1,.029.011.075.075,0,0,0,.051.017c.078,0,.163.011.255.022M73.274,69V69c-.073-.056-.119-.094-.138-.112a4.3,4.3,0,0,0-.57-.245.5.5,0,0,1-.081-.078s-.008-.012-.021-.022l-.067-.018a.1.1,0,0,0-.081.051.611.611,0,0,0-.08.329.267.267,0,0,0,.11.223,1.586,1.586,0,0,0,.8.016.219.219,0,0,0,.1-.027.142.142,0,0,0,.037-.1ZM72.032,67.97a.568.568,0,0,0,.219.4s.008.011.022.022a.126.126,0,0,0,.066.033.872.872,0,0,0,.212-.066,2.973,2.973,0,0,1,.833-.145,1.642,1.642,0,0,1,.3-.006l.037.028a2.192,2.192,0,0,0,.044.619,3.553,3.553,0,0,0,.052.469,4.535,4.535,0,0,1-.008,1.049.4.4,0,0,0-.044.039.72.72,0,0,1-.416.039h-.015a2.672,2.672,0,0,1-.541-.1c-.034,0-.083-.008-.146-.012v.039a.893.893,0,0,0,.234.162.586.586,0,0,1,.087.061,4.238,4.238,0,0,0,.951.363c.062.023.128.049.2.078a1.287,1.287,0,0,0,.373.1.213.213,0,0,0,.065-.017q.023-.015.03-.129c-.02-.092-.039-.185-.059-.278a3.456,3.456,0,0,1-.058-.558l-.008-.792a.081.081,0,0,1,.074-.034,2.712,2.712,0,0,1,.672.3.431.431,0,0,0,.072.039l.257.173a.7.7,0,0,1,.248.335c0,.1.136.152.41.156q.219.022,1.1,0a1.172,1.172,0,0,0,.475-.106.141.141,0,0,1,.014-.062,1.322,1.322,0,0,0-.68-.25h-.013l-.038-.012-.782-.167a.374.374,0,0,0-.072,0,5.667,5.667,0,0,1-1.309-.82,2.9,2.9,0,0,1,.687-.4.651.651,0,0,1,.212-.107,2.635,2.635,0,0,1,.307-.105.279.279,0,0,0-.081-.19A.349.349,0,0,0,75.781,68a.335.335,0,0,0-.153.078.041.041,0,0,0-.03.023c-.043.014-.272.158-.686.429a.914.914,0,0,1-.1.055,1.5,1.5,0,0,1-.241.107.154.154,0,0,1-.153-.095.8.8,0,0,1-.044-.369c0-.088.029-.144.088-.166a.675.675,0,0,0,.066-.017c.058-.012.265-.065.621-.162a.067.067,0,0,1,.036-.006,1.073,1.073,0,0,0,.205-.016c.043-.012.066-.036.066-.074a1.578,1.578,0,0,0-.3-.4.112.112,0,0,0-.073-.04l-.614.118a.073.073,0,0,1-.081-.074,2.431,2.431,0,0,1,.088-.97l.015-.028c.029-.023.065-.052.109-.089v-.034a1.034,1.034,0,0,0-.358-.128l-.044-.034h-.028a.086.086,0,0,0-.015.017,1.538,1.538,0,0,0-.169-.022c-.043.022-.074.166-.095.429,0,.112-.012.224-.022.335,0,.022-.041.266-.109.731a.959.959,0,0,1-.293.1,1.5,1.5,0,0,0-.335.078c-.03,0-.227.022-.593.067l-.467.056a.189.189,0,0,0-.044.045Zm1.023,1.406a6.545,6.545,0,0,0-.6.3c-.015,0-.023.006-.023.017-.276.115-.508.217-.693.307-.225.082-.337.146-.337.2q0,.039.322.318a.382.382,0,0,0,.168.09c.044,0,.124-.07.241-.2l.585-.419q.776-.634.819-.691c.058-.038.089-.073.094-.107s-.02-.05-.058-.05A1.367,1.367,0,0,0,73.055,69.376Z"/><path class="cls-3" d="M80.617,67.636h-.045c-.06,0-.092-.021-.1-.053,0-.051.045-.1.134-.136a3.1,3.1,0,0,0,.47-.214.471.471,0,0,0,.031-.327.1.1,0,0,0-.09-.035l-.06.006-.313.06a.127.127,0,0,1-.03-.054c-.006-.023.034-.075.119-.154a.59.59,0,0,1,.381-.149.282.282,0,0,1,.209.108,5.287,5.287,0,0,1,.06,1.114.083.083,0,0,1-.083.1.173.173,0,0,1-.074-.025q-.045-.017-.09-.231c-.014-.047-.189-.049-.522-.006m.148,1.84c0,.035-.013.055-.044.059a.7.7,0,0,1-.373-.19.241.241,0,0,1-.074-.184.273.273,0,0,1,.1-.226.188.188,0,0,1,.171-.071c.12,0,.185.082.195.243Zm-1.9.611-.626.231c-.18.059-.269.113-.269.16s.1.09.306.09a2.43,2.43,0,0,0,.9-.173.829.829,0,0,1,.112-.041.3.3,0,0,0,.18-.161.417.417,0,0,1,.179-.314c.064-.075.421-.031,1.067.131a2.684,2.684,0,0,0,.769.249,1.066,1.066,0,0,1,.627.261,1.315,1.315,0,0,1,.1.118,1.409,1.409,0,0,1,.105.291c.015.048.1.077.261.089a2.236,2.236,0,0,1,.478.029q.135,0,.612.036a3.785,3.785,0,0,1,.6-.017c.14-.04.284-.079.434-.119.059-.016.09-.043.09-.083s-.06-.074-.18-.113q-.537-.16-2.127-.48l-1.045-.38a.144.144,0,0,1-.1-.131.466.466,0,0,1,.014-.076.358.358,0,0,1,.164-.22,1.676,1.676,0,0,1,.739-.155c.031-.011.047-.039.052-.083a.482.482,0,0,0-.037-.112c0,.012,0,0-.007-.042a.225.225,0,0,0-.022-.1,1.776,1.776,0,0,0-.545-.036l-.157.013c-.06,0-.089-.022-.089-.077a.172.172,0,0,1,.021-.071.155.155,0,0,1,.142-.083.631.631,0,0,0,.09-.012A6.312,6.312,0,0,1,83.05,68.7c.075,0,.114-.029.119-.089a.153.153,0,0,0-.007-.047.72.72,0,0,0-.134-.356.261.261,0,0,0-.209-.113l-.613.083c-.065,0-.1-.039-.1-.118,0-.1.055-.546.164-1.353a2.447,2.447,0,0,1,.12-.326q-.067-.112-.5-.137a8.509,8.509,0,0,0-1.82.232.757.757,0,0,0-.157.029.148.148,0,0,0-.135.107,3.271,3.271,0,0,0,.172,1.311,1.542,1.542,0,0,0,.03.166.208.208,0,0,0,.224.161A3.953,3.953,0,0,1,80.945,68a1.1,1.1,0,0,1,.269.112,1.488,1.488,0,0,1,.172.119,3.637,3.637,0,0,1-.464.1,20.2,20.2,0,0,0-2.8.593q-.09,0,.015.231s.005.008.029.036a.376.376,0,0,0,.2.118,3.531,3.531,0,0,1,1.24-.3A.093.093,0,0,1,79.653,69c.06,0,.091.028.091.095a1.061,1.061,0,0,1-.3.516c-.06.047-.194.172-.4.373A1.492,1.492,0,0,0,78.862,70.087Z"/><path class="cls-3" d="M89.358,68.649a.729.729,0,0,0,.122.386.18.18,0,0,0,.139.087.346.346,0,0,0,.185-.056c.092-.062.141-.2.146-.417A2.716,2.716,0,0,1,90.1,68a.055.055,0,0,0-.03-.044,1.672,1.672,0,0,0-.591-.142l-.024-.007c-.1,0-.148.044-.153.131a.144.144,0,0,0,.022.075l.039.636m-.177,1.67c0,.117.207.283.623.5a2.073,2.073,0,0,0,.438.168c.036.012.074.027.115.043a3.825,3.825,0,0,0,.969.268.167.167,0,0,0,.192-.174,9.838,9.838,0,0,1-.169-2.461,4.979,4.979,0,0,1,.1-2.213s.006-.008.016-.013a.1.1,0,0,1,.008-.037c0-.063-.089-.125-.269-.187-.251-.079-.387-.12-.408-.125a.213.213,0,0,0-.108.038c-.046.024-.068.076-.068.155l.008,1.9a.616.616,0,0,0,.014.131q.009.194.016.736.069,1.484.054,1.508a.712.712,0,0,1-.377.062,2.222,2.222,0,0,1-.908-.206A.547.547,0,0,0,89.181,70.319ZM88.02,68.692c0,.055-.008.114-.008.181a.523.523,0,0,1-.122.336.263.263,0,0,1-.193.057c-.092,0-.14-.024-.146-.069a.363.363,0,0,0-.023-.125.405.405,0,0,0-.307-.087c-.016,0-.041,0-.078.006a.046.046,0,0,1-.038-.024,2.366,2.366,0,0,1,.584-.344.454.454,0,0,1,.3-.018A.146.146,0,0,1,88.02,68.692Zm-1.084-.878A11.987,11.987,0,0,1,85.5,69.2a.062.062,0,0,1-.038.031.527.527,0,0,0-.107.131.627.627,0,0,1-.138.149.093.093,0,0,0-.032.05c0,.026.016.039.046.044a.257.257,0,0,0,.078-.018.031.031,0,0,1,.022-.007l.054-.013c.093-.024.211-.052.354-.08a4.066,4.066,0,0,0,.392-.15.653.653,0,0,1,.108-.044.454.454,0,0,0,.13-.081,1.222,1.222,0,0,1,.277-.187l.139-.092a.067.067,0,0,0,.022-.007l.215.044c.021,0,.034.039.04.105q-.147,1.216-.147,1.259a.7.7,0,0,0,.446.536q.146.118,1.091-.043a.278.278,0,0,0,.054-.006.517.517,0,0,0,.215-.07.2.2,0,0,0,.054-.148,1.71,1.71,0,0,0-.1-.418l-.161-.393a.105.105,0,0,0-.062-.031c-.092,0-.145.075-.161.224a.747.747,0,0,1-.084.306.261.261,0,0,1-.177.143,1.7,1.7,0,0,1-.369.056.4.4,0,0,1-.231-.075c-.092-.074-.107-.22-.046-.436q.054-.28.138-.336a1.334,1.334,0,0,1,.5,0,.543.543,0,0,0,.43-.311.063.063,0,0,1,.032-.049l.122-.237a1.971,1.971,0,0,0,.085-.231c.016-.063.025-.107.03-.131a.239.239,0,0,1,.016-.087.255.255,0,0,0,.092-.212c0-.026-.038-.058-.114-.1a1.279,1.279,0,0,0-1.008,0,1.821,1.821,0,0,0-.331.125,3.509,3.509,0,0,1-.354.15c-.035,0-.056-.022-.06-.063a1.478,1.478,0,0,1,.33-.493.9.9,0,0,1,.222-.23,2.966,2.966,0,0,1,.223-.2.386.386,0,0,1,.193-.075.647.647,0,0,1,.369.155.466.466,0,0,0,.362.131,1.043,1.043,0,0,0,.253-.074q.254-.131.261-.225c0-.1-.131-.168-.392-.2a1.2,1.2,0,0,1-.345-.05c-.1-.017-.15-.054-.155-.113a2.956,2.956,0,0,0,.331-.379.636.636,0,0,0-.1-.15.367.367,0,0,1-.054-.056c-.067-.087-.123-.132-.169-.132-.067,0-.24.15-.522.449a.46.46,0,0,1-.062.076Z"/><path class="cls-3" d="M94.914,70.289a1.13,1.13,0,0,0,.865-.354q.239-.342.168-.538a.7.7,0,0,1,.5-.677.627.627,0,0,1,.216-.051.091.091,0,0,1,.07.026,5.652,5.652,0,0,1,.153,1.4q.009.083.016.6,0,.747.132.83a.57.57,0,0,0,.154.025c.205,0,.31-.052.315-.158q-.022-.379-.022-1.095a6.234,6.234,0,0,1,.007-1.012,1.662,1.662,0,0,1,.077-.538.239.239,0,0,1,.108-.166,2.053,2.053,0,0,1,.747-.012s.013,0,.024,0a.878.878,0,0,1,.162.019c.1,0,.148-.038.154-.114a.523.523,0,0,0-.085-.2,1.408,1.408,0,0,0-.2-.29.354.354,0,0,0-.184-.121c-.067,0-.167.006-.3.019q-.285.027-1.634.367h-.078q-.069-.171.186-.436c.078-.119.3-.192.679-.222a1.209,1.209,0,0,0,.292-.107,1.016,1.016,0,0,0,.409-.178c.005-.03.01-.067.015-.114a.333.333,0,0,0-.1-.209.272.272,0,0,0-.2-.075,4.924,4.924,0,0,0-1.118.284.024.024,0,0,0-.014.006,1.5,1.5,0,0,0-.579.159,7.386,7.386,0,0,0-.03.9c-.021.113-.038.232-.054.354l-.07.317q-.162.454-.192.512a.394.394,0,0,0-.039.083l-.238.348a3.273,3.273,0,0,0-.31.379v.044m-.23-4.607a.335.335,0,0,0-.223.095.639.639,0,0,0-.232.525.311.311,0,0,0,.116.2.7.7,0,0,0,.485.189.849.849,0,0,0,.232-.056.933.933,0,0,0-.263-.817l-.092-.114ZM93.528,70.03a1.383,1.383,0,0,1,.038-.259c.006-.029.011-.055.016-.076,0-.139.012-.221.038-.247s.059-.042.132-.051a.876.876,0,0,0,.154-.018.936.936,0,0,1,.2-.026,1.3,1.3,0,0,1,.061.664.115.115,0,0,1-.054.108.327.327,0,0,1-.231.057.607.607,0,0,1-.254-.044.211.211,0,0,1-.1-.082Zm.23-1.082c-.173.055-.348.116-.523.183q-.069,0-.833.2c-.1.017-.154.04-.169.07a.155.155,0,0,0,.031.158.417.417,0,0,0,.192.151l.07-.018a3.442,3.442,0,0,1,.709-.2l.023.019s-.007,0-.007.012a.062.062,0,0,0-.016.032.523.523,0,0,0-.1.089s-.016.012-.046.051a1.146,1.146,0,0,1-.094.1c-.292.3-.439.485-.439.544,0,.038.037.08.108.127a2,2,0,0,0,.371.127.207.207,0,0,0,.176-.083q.124-.322.471-.044l.038.032a.148.148,0,0,1,.046.025,2.994,2.994,0,0,0,.647.215.2.2,0,0,0,.178-.082,1.474,1.474,0,0,0,0-.684.1.1,0,0,0,.008.038.536.536,0,0,1-.008-.208,2.684,2.684,0,0,0,.509-.025c0-.005,0-.007.008-.007.062-.051.092-.1.092-.139,0-.089-.1-.171-.294-.247a1.29,1.29,0,0,1-.246-.107v-.038c0-.039.039-.068.116-.089.232-.039.365-.057.4-.057a.189.189,0,0,1,.084-.026c.185-.038.28-.086.285-.145a.32.32,0,0,0-.123-.228.314.314,0,0,0-.17-.076,2.286,2.286,0,0,0-.432.095.11.11,0,0,1-.069-.095.174.174,0,0,1,.023-.082,1.845,1.845,0,0,1,.362-.146c.186-.076.28-.162.286-.26a.17.17,0,0,0-.054-.126.376.376,0,0,0-.2-.044.418.418,0,0,1-.086-.02.093.093,0,0,0-.008-.038c0-.054.067-.111.2-.17.231-.118.248-.228.053-.329a1.687,1.687,0,0,1-.177-.083A.194.194,0,0,1,95.1,67.3a.093.093,0,0,1-.016-.044.5.5,0,0,1,.162-.064c.191-.055.288-.157.293-.31l-.016-.013V66.86a1.84,1.84,0,0,0-1.086.082,7.878,7.878,0,0,0-1.372.323.656.656,0,0,0,.146.322c.1-.025.2-.054.317-.089a.386.386,0,0,1,.23-.005c-.076.138-.151.284-.222.436a.206.206,0,0,0-.039.113c0,.089.039.135.115.14a.081.081,0,0,0,.038-.007.37.37,0,0,0,.078-.024c.108-.03.246-.16.416-.393a.487.487,0,0,1,.363-.234c.046,0,.069.029.069.088q0,.153-.271.4a5.464,5.464,0,0,1-1.024.374.721.721,0,0,0-.146.051.239.239,0,0,0-.07.012c-.035,0-.075.028-.116.083a.523.523,0,0,0,.178.3.584.584,0,0,0,.124.031,1.657,1.657,0,0,1,.739-.151.079.079,0,0,1,.069.031.145.145,0,0,1,.031.076.1.1,0,0,1-.031.057Z"/><path class="cls-4" d="M69.138,74.376v3.037H68.49l-.384-1.38v1.38h-.618V74.376h.618l.414,1.368V74.376h.618M66.42,76.329q-.057-.516-.112-1.274-.112.871-.141,1.274Zm.392-1.953.423,3.037h-.757l-.037-.546h-.265l-.044.546h-.765l.376-3.037Zm-1.7,0v3.037h-.739V76.138h-.221v1.275h-.74V74.376h.74v1.086h.221V74.376Zm-2.112,0v2.03a3.973,3.973,0,0,1-.021.485.694.694,0,0,1-.125.287.649.649,0,0,1-.273.223.963.963,0,0,1-.4.076,1.063,1.063,0,0,1-.45-.09.69.69,0,0,1-.292-.234.673.673,0,0,1-.113-.305q-.018-.16-.018-.675v-1.8h.739v2.277a.988.988,0,0,0,.02.255.08.08,0,0,0,.082.055.084.084,0,0,0,.09-.061,1.189,1.189,0,0,0,.02-.288V74.376Zm-1.955,0-.328,3.037h-.924q-.126-.7-.223-1.59c-.029.253-.1.784-.2,1.59h-.918l-.33-3.037h.718l.075,1.06.077,1.023q.041-.793.2-2.083h.769q.016.133.081,1l.081,1.153c.041-.733.109-1.453.2-2.155Z"/><path class="cls-4" d="M79.869,76.329q-.057-.516-.114-1.274-.115.871-.143,1.274h.257m.4-1.953.431,3.037h-.77l-.037-.546h-.27l-.045.546H78.8l.382-3.037Zm-1.729,0v3.037H77.88l-.392-1.38v1.38H76.86V74.376h.628l.422,1.368V74.376Zm-2.109,0v3.037h-.752V74.376Zm-1.183,0v3.037H74.5V76.138H74.27v1.275h-.752V74.376h.752v1.086H74.5V74.376ZM73.119,75.7h-.751v-.529a.994.994,0,0,0-.025-.288.1.1,0,0,0-.106-.057.111.111,0,0,0-.118.069,1.148,1.148,0,0,0-.025.3v1.411a1.044,1.044,0,0,0,.025.288.125.125,0,0,0,.223,0,1.153,1.153,0,0,0,.026-.317V76.2h.751v.118a2.46,2.46,0,0,1-.063.668.675.675,0,0,1-.281.345.93.93,0,0,1-.534.148,1.062,1.062,0,0,1-.545-.126A.6.6,0,0,1,71.412,77a2.427,2.427,0,0,1-.069-.67v-.887a4.212,4.212,0,0,1,.021-.492.707.707,0,0,1,.128-.317.722.722,0,0,1,.294-.239,1.156,1.156,0,0,1,.982.048.646.646,0,0,1,.284.337,2.136,2.136,0,0,1,.067.627Z"/><ellipse class="cls-5" cx="69.563" cy="52.805" rx="48.828" ry="32.133"/><ellipse class="cls-6" cx="69.577" cy="52.899" rx="39.906" ry="31.689"/><line class="cls-7" x1="42.614" y1="25.978" x2="96.341" y2="25.978"/><line class="cls-8" x1="43.157" y1="79.865" x2="96.088" y2="79.865"/><path class="cls-9" d="M23.854,86.055l-.187.24-1.813-1.382.187-.239.115.087a.36.36,0,0,0,.351.048.963.963,0,0,0,.346-.235,8.31,8.31,0,0,0,.669-.8l4.531-5.792a8.968,8.968,0,0,0,.632-.867.9.9,0,0,0,.117-.381.327.327,0,0,0-.132-.3l-.115-.088.189-.241,1.813,1.382-.189.241-.116-.087a.354.354,0,0,0-.348-.05.99.99,0,0,0-.349.233,8.593,8.593,0,0,0-.668.8l-4.531,5.792a8.912,8.912,0,0,0-.632.867.939.939,0,0,0-.116.383.327.327,0,0,0,.131.305l.115.087"/><path class="cls-9" d="M35.057,80.468l-.187.282c-.176-.031-.432.085-.763.354-.248.2-.743.73-1.533,1.549l-5.647,5.854-.091-.061,3.269-7.887c.458-1.106.782-1.735.843-1.94a.533.533,0,0,0-.082-.523l.188-.281,1.8,1.2-.187.281-.061-.04a.414.414,0,0,0-.444-.056.838.838,0,0,0-.285.291,3.589,3.589,0,0,0-.193.337c-.066.132-.238.5-.513,1.094l-2.6,5.637L32.348,82.5q.684-.736.9-1a5.2,5.2,0,0,0,.349-.458,1.942,1.942,0,0,0,.222-.43.686.686,0,0,0,.045-.349.485.485,0,0,0-.23-.339l.187-.281,1.235.818"/><path class="cls-9" d="M37.088,82.034l-2.264,3.671.077.045c.218.127.8.752,1.346.26.338-.308.193-.247.646-.86l.285.082-2.034,3.389-.3-.119c.329-.488.295-.34.428-.728s.161-.481.135-.657-.757-.6-.94-.711l-1.6,2.663a10.872,10.872,0,0,0-.546.97.8.8,0,0,0-.07.345.293.293,0,0,0,.171.251l.229.134a1.145,1.145,0,0,0,1.233-.109,2.983,2.983,0,0,0,1.185-1.076l.278.291L33.6,92.032l-3.326-1.946.154-.257.128.075a.369.369,0,0,0,.358.01.914.914,0,0,0,.314-.269,7.765,7.765,0,0,0,.56-.86l3.733-6.219c.258-.428.41-.693.459-.8a1.164,1.164,0,0,0,.121-.437.374.374,0,0,0-.178-.368l-.128-.075.156-.259,3.221,1.883-1.161,2.307-.309-.149a2.413,2.413,0,0,0,.335-1.03,1.515,1.515,0,0,0-.029-.9,1.133,1.133,0,0,0-.52-.475l-.4-.232"/><path class="cls-9" d="M40.778,83.977l-2.252,4.278.162.071a.953.953,0,0,0,.689.076,1.652,1.652,0,0,0,.658-.529,6.738,6.738,0,0,0,.77-1.2,5.562,5.562,0,0,0,.662-1.74.7.7,0,0,0-.385-.823l-.3-.132m-2.521,4.79-1.442,2.739a8.826,8.826,0,0,0-.486,1.013.8.8,0,0,0-.038.388c.022.11.121.2.3.281l-.14.266-1.978-.861.139-.266a.5.5,0,0,0,.432.031.978.978,0,0,0,.306-.269,9,9,0,0,0,.561-.977l3.336-6.34a8.717,8.717,0,0,0,.487-1.015.765.765,0,0,0,.036-.386c-.02-.111-.12-.2-.3-.28l.141-.268,1.8.781a1.731,1.731,0,0,1,.9.693,1.817,1.817,0,0,1,.054,1.135,5.957,5.957,0,0,1-.607,1.634A5.487,5.487,0,0,1,40.5,88.719a1.8,1.8,0,0,1-.9.43l-.812,3.712a7.52,7.52,0,0,0-.162.912.4.4,0,0,0,.142.364l-.139.265-1.217-.529,1.1-5Z"/><path class="cls-9" d="M46.2,85.332l-1.209,3.46-.132-.041a6.385,6.385,0,0,0,.3-2.23q-.08-.9-.5-1.033a.65.65,0,0,0-.668.257,2.51,2.51,0,0,0-.538.9,2.641,2.641,0,0,0-.152.63,2.8,2.8,0,0,0,.042.8,8.261,8.261,0,0,0,.373,1.109,5.284,5.284,0,0,1,.42,2.006,6.058,6.058,0,0,1-.392,1.9,5.955,5.955,0,0,1-1.23,2.1q-.762.8-1.417.6a.81.81,0,0,1-.352-.22,2.27,2.27,0,0,1-.324-.516c-.066-.134-.132-.209-.2-.23s-.133.014-.231.1a1.588,1.588,0,0,0-.319.42l-.118-.037,1.41-3.908.118.037a8.109,8.109,0,0,0-.363,2.682q.089.992.554,1.135a.725.725,0,0,0,.74-.289,2.861,2.861,0,0,0,.6-1.018,3.263,3.263,0,0,0,.174-.736,2.779,2.779,0,0,0-.013-.729,5.037,5.037,0,0,0-.3-.987,7.026,7.026,0,0,1-.426-1.446,4.564,4.564,0,0,1-.005-1.215,6.206,6.206,0,0,1,.339-1.372,5.805,5.805,0,0,1,1.143-1.99q.694-.748,1.275-.57a.78.78,0,0,1,.367.247,1.692,1.692,0,0,1,.243.454c.085.209.157.324.214.341s.115-.011.175-.081a3.014,3.014,0,0,0,.3-.559l.1.03"/><path class="cls-9" d="M53.287,87.489l-.859,2.825-.116-.03a8.972,8.972,0,0,0,.2-1.464,1.761,1.761,0,0,0-.141-.77.54.54,0,0,0-.388-.251l-.328-.084L49.2,95.761a8.144,8.144,0,0,0-.267,1.01.864.864,0,0,0,.04.387.337.337,0,0,0,.251.229l.146.038-.086.283-2.3-.594.086-.284.147.038a.393.393,0,0,0,.357-.083.971.971,0,0,0,.246-.336,7.766,7.766,0,0,0,.331-.96L50.6,87.443l-.319-.083a.73.73,0,0,0-.782.28,5.728,5.728,0,0,0-.9,1.686l-.123-.032.859-2.826,3.953,1.021"/><path class="cls-9" d="M58.506,88.464l-.052.3a.613.613,0,0,0-.408.26,12.509,12.509,0,0,0-.862,1.754l-1.7,3.779-.46,2.623a8.237,8.237,0,0,0-.146,1.05.868.868,0,0,0,.086.379.336.336,0,0,0,.269.2l.26.038-.052.294-2.607-.376.052-.294.243.035a.4.4,0,0,0,.355-.122.941.941,0,0,0,.208-.365,7.536,7.536,0,0,0,.215-1l.381-2.175-.279-4.8a10.074,10.074,0,0,0-.176-1.685.4.4,0,0,0-.311-.3l.052-.3,2.226.321-.052.3-.1-.015a.312.312,0,0,0-.307.1.57.57,0,0,0-.13.275,9.3,9.3,0,0,0,.02,1.486l.21,3.713,1.41-3.152a8.427,8.427,0,0,0,.59-1.546.661.661,0,0,0-.026-.37.525.525,0,0,0-.386-.3l.052-.3,1.419.2"/><path class="cls-9" d="M63.423,89.717q-.629-.064-1.137,1.405a18.062,18.062,0,0,0-.7,3.513,14.718,14.718,0,0,0-.081,4.1q.176.948.692,1a.7.7,0,0,0,.627-.334,4.876,4.876,0,0,0,.658-1.572A20.6,20.6,0,0,0,64,94.951a22.119,22.119,0,0,0,.217-3.2,4.485,4.485,0,0,0-.25-1.538c-.138-.307-.321-.473-.547-.5m.019-.509c.736.011,1.267.572,1.594,1.677a10.154,10.154,0,0,1,.2,4.05,11.7,11.7,0,0,1-.944,3.537q-.924,1.986-2.154,1.858T60.47,98.17a11.384,11.384,0,0,1-.087-3.732,10.193,10.193,0,0,1,1.174-3.909Q62.445,89.006,63.442,89.208Z"/><path class="cls-9" d="M67.031,90.234l-.074,4.449.131,0a.624.624,0,0,0,.49-.208,1.821,1.821,0,0,0,.332-.723,7.111,7.111,0,0,0,.193-1.38l.116,0-.09,5.439-.115,0a5.163,5.163,0,0,0-.31-2.036c-.181-.33-.39-.5-.626-.5l-.13,0-.055,3.315a8.056,8.056,0,0,0,.022,1.039.893.893,0,0,0,.143.365.347.347,0,0,0,.3.162l.15,0,0,.3-2.35-.035,0-.294.149,0a.371.371,0,0,0,.318-.165.875.875,0,0,0,.138-.382,7.611,7.611,0,0,0,.053-1l.117-7.123a8.29,8.29,0,0,0-.019-1.039.859.859,0,0,0-.141-.365.351.351,0,0,0-.3-.16l-.15,0,.005-.3,3.791.056-.051,3.108-.136,0a5.823,5.823,0,0,0-.21-1.626,1.362,1.362,0,0,0-.539-.75,1.58,1.58,0,0,0-.734-.131l-.418-.006"/><path class="cls-9" d="M79.028,88.871l.721,3.758-.131.024a6.647,6.647,0,0,0-.985-2.154c-.369-.472-.725-.678-1.066-.614q-.426.078-.671.728a4.426,4.426,0,0,0-.228,1.626,15.885,15.885,0,0,0,.3,2.726,21.068,21.068,0,0,0,.664,2.623,5.5,5.5,0,0,0,.831,1.718,1,1,0,0,0,.972.454,1.018,1.018,0,0,0,.7-.593,5.8,5.8,0,0,0,.46-1.682l.18.936a4.394,4.394,0,0,1-.535,1.527,1.324,1.324,0,0,1-.89.608,1.694,1.694,0,0,1-1.43-.457,5.1,5.1,0,0,1-1.259-1.838A13.025,13.025,0,0,1,75.6,92.534a5.989,5.989,0,0,1,.507-2.33,1.6,1.6,0,0,1,1.087-.995,1.585,1.585,0,0,1,1.111.307,1.119,1.119,0,0,0,.449.217c.072-.014.122-.088.15-.223A1.971,1.971,0,0,0,78.9,88.9l.131-.024"/><path class="cls-9" d="M83.861,98.843l.056.289-2.24.456-.056-.289.142-.029a.361.361,0,0,0,.268-.227.9.9,0,0,0,.053-.4,7.809,7.809,0,0,0-.157-1l-1.359-6.991a8.358,8.358,0,0,0-.234-1.012.864.864,0,0,0-.209-.328.337.337,0,0,0-.316-.094l-.142.029-.057-.292,2.241-.456.056.292-.142.029a.357.357,0,0,0-.268.224.935.935,0,0,0-.056.4,8.043,8.043,0,0,0,.157.994l1.36,6.992a8.49,8.49,0,0,0,.233,1.012.925.925,0,0,0,.212.327.332.332,0,0,0,.316.1l.142-.029"/><path class="cls-9" d="M111.882,75.705l4.892,7.027a6.662,6.662,0,0,0,.5.666.507.507,0,0,0,.217.136.352.352,0,0,0,.307-.066c.338-.236.422-.667.248-1.3a12.394,12.394,0,0,0-1.844-3.428,15.044,15.044,0,0,0-2.178-2.6,2.788,2.788,0,0,0-1.275-.748,1.243,1.243,0,0,0-.866.307m4.34,9.589-.17-.245.137-.1a.4.4,0,0,0,.188-.316.972.972,0,0,0-.092-.434,8.118,8.118,0,0,0-.554-.856l-4.124-5.924a7.667,7.667,0,0,0-.635-.84.829.829,0,0,0-.345-.207.4.4,0,0,0-.365.062l-.137.1-.172-.247L111.8,75a1.988,1.988,0,0,1,1.5-.388,4.193,4.193,0,0,1,1.966,1.044,11.849,11.849,0,0,1,2,2.266,12.319,12.319,0,0,1,1.078,1.848,7.447,7.447,0,0,1,.559,1.573,3.54,3.54,0,0,1,.071,1.2,2.45,2.45,0,0,1-.371.982,1.964,1.964,0,0,1-.529.486Z"/><path class="cls-9" d="M127.889,41.061l3.682-.958.894,3.823-.282.086-.033-.143a.337.337,0,0,0-.233-.251.841.841,0,0,0-.4-.015,7.957,7.957,0,0,0-.972.261l-6.828,2.1a8.886,8.886,0,0,0-.987.34.95.95,0,0,0-.314.249.369.369,0,0,0-.082.333l.034.143-.285.087-.537-2.3.285-.087.044.187a.334.334,0,0,0,.23.254.924.924,0,0,0,.4.017,8.042,8.042,0,0,0,.973-.262l6.612-2.03a8.656,8.656,0,0,0,1-.349.654.654,0,0,0,.292-.25.708.708,0,0,0-.022-.4l-.084-.358a.663.663,0,0,0-.424-.484,2.557,2.557,0,0,0-1.012-.112,14.943,14.943,0,0,0-1.926.253l-.03-.13"/><path class="cls-9" d="M18.865,31l-2.786-1.9a7.383,7.383,0,0,0-.887-.554.851.851,0,0,0-.4-.065.413.413,0,0,0-.324.192l-.1.141-.244-.167,1.509-2.211.244.167-.1.141a.438.438,0,0,0-.061.391.819.819,0,0,0,.234.343,6.613,6.613,0,0,0,.812.606l5.918,4.041a7.326,7.326,0,0,0,.887.554.81.81,0,0,0,.4.067.416.416,0,0,0,.322-.193l.1-.141.247.169-1.51,2.21-.247-.169.1-.14a.434.434,0,0,0,.064-.39.859.859,0,0,0-.232-.346,6.968,6.968,0,0,0-.812-.6L19.449,31.4,18.43,32.888l2.548,1.739a7.774,7.774,0,0,0,.886.556.836.836,0,0,0,.4.065.423.423,0,0,0,.323-.2l.094-.137.247.168-1.508,2.208-.247-.168.094-.138a.435.435,0,0,0,.065-.391.9.9,0,0,0-.232-.346,7.062,7.062,0,0,0-.813-.6L14.366,31.6a7.75,7.75,0,0,0-.887-.556.834.834,0,0,0-.4-.065.414.414,0,0,0-.325.2l-.094.137-.244-.167,1.507-2.208.245.167-.094.137a.435.435,0,0,0-.062.393.886.886,0,0,0,.232.346,7.076,7.076,0,0,0,.813.6l2.785,1.9L18.865,31"/><path class="cls-9" d="M21.24,37.393l-1.478,2.219-.253-.169.074-.11a.524.524,0,0,0,.118-.418.823.823,0,0,0-.22-.339,8.547,8.547,0,0,0-.96-.7l-4.514-3.007a11.549,11.549,0,0,0-1.7-1.005,2.046,2.046,0,0,0-.857-.157.729.729,0,0,0-.6.328.862.862,0,0,0-.059.818,2.87,2.87,0,0,0,.683.987,14.166,14.166,0,0,0,1.979,1.495l3.76,2.5a5.463,5.463,0,0,0,.925.529,1.019,1.019,0,0,0,.467.092.618.618,0,0,0,.425-.3l.253.169-.991,1.487-.253-.169.059-.088a.44.44,0,0,0,.045-.405,1.274,1.274,0,0,0-.353-.486,5.937,5.937,0,0,0-.754-.563l-3.5-2.332a23.185,23.185,0,0,1-2.28-1.663,3.927,3.927,0,0,1-1-1.37,1.438,1.438,0,0,1,.1-1.46,1.363,1.363,0,0,1,.895-.649,2.958,2.958,0,0,1,1.5.156A9.428,9.428,0,0,1,14.7,33.838l4.513,3.007a8.145,8.145,0,0,0,1.016.618.782.782,0,0,0,.4.062c.124-.014.242-.115.358-.3l.253.168"/><path class="cls-9" d="M11.938,40.509l3.341.673-2.713-1.84-.628,1.167m-.693-.149.745-1.587-1.313-.968c-.3-.221-.368-.377-.581-.478a1.125,1.125,0,0,0-.687-.145c-.105.022-.224.14-.361.354l-.274-.13.611-1.494.274.13a.882.882,0,0,0,.29.612,6.153,6.153,0,0,0,1.173,1.109l7.3,5.317-.122.231L9.552,40.947a7.686,7.686,0,0,0-1.637-.323.82.82,0,0,0-.567.19l-.274-.13L8.131,38.51l.274.13-.037.09a.461.461,0,0,0,.015.446.769.769,0,0,0,.313.236,2.379,2.379,0,0,0,.283.111,2.85,2.85,0,0,1,.6.166Z"/><path class="cls-9" d="M17.013,47.627,7.3,43.143,7.145,44a1.49,1.49,0,0,0,.028.886,2.26,2.26,0,0,0,.931.874,8.107,8.107,0,0,0,1.989.765l-.024.13L6.2,45.776l.748-4.142,9.729,4.49.121-.67a1.5,1.5,0,0,0,.036-.524,1.085,1.085,0,0,0-.332-.513,2.783,2.783,0,0,0-.754-.487,8.547,8.547,0,0,0-1.25-.442l.022-.123,3.14.689-.646,3.573"/><path class="cls-9" d="M10.838,49.2,7.46,48.791a7.785,7.785,0,0,0-1.05-.085.868.868,0,0,0-.383.116.374.374,0,0,0-.193.3l-.018.16-.3-.036.271-2.512.3.036-.018.159a.412.412,0,0,0,.134.357.893.893,0,0,0,.372.188,7.276,7.276,0,0,0,1.009.161l7.176.859a7.858,7.858,0,0,0,1.05.086.85.85,0,0,0,.382-.114.375.375,0,0,0,.191-.3l.018-.16.3.036-.271,2.512-.3-.036.018-.16A.405.405,0,0,0,16.016,50a.924.924,0,0,0-.371-.192,7.5,7.5,0,0,0-1.009-.16l-3.089-.37-.184,1.7,3.089.37a8.345,8.345,0,0,0,1.051.087.851.851,0,0,0,.382-.116.385.385,0,0,0,.192-.3l.017-.156.3.036L16.122,53.4l-.3-.036.016-.156a.4.4,0,0,0-.131-.357.949.949,0,0,0-.371-.192,7.676,7.676,0,0,0-1.009-.16l-7.176-.859a8.322,8.322,0,0,0-1.05-.087.851.851,0,0,0-.382.116.382.382,0,0,0-.195.3l-.016.156-.3-.035.271-2.51.3.036-.017.156a.4.4,0,0,0,.134.357.927.927,0,0,0,.371.192,7.7,7.7,0,0,0,1.009.16l3.378.4.183-1.7"/><path class="cls-9" d="M15.951,55.422q-.057-.623-1.637-.862a19.262,19.262,0,0,0-3.676-.063,15.494,15.494,0,0,0-4.147.638c-.615.224-.9.508-.874.849a.706.706,0,0,0,.459.554,5.237,5.237,0,0,0,1.712.366,22.154,22.154,0,0,0,3,0,23.3,23.3,0,0,0,3.267-.349,4.648,4.648,0,0,0,1.5-.512c.282-.189.415-.4.394-.621m.517-.069c.133.719-.329,1.334-1.379,1.847a10.618,10.618,0,0,1-4.041.9A12.493,12.493,0,0,1,7.3,57.8q-2.182-.553-2.294-1.775t1.852-2.005a11.958,11.958,0,0,1,3.743-.738,10.878,10.878,0,0,1,4.169.462Q16.476,54.345,16.468,55.353Z"/><path class="cls-9" d="M16.847,58.717l-6.049,3.9,4.567-1.02a4.373,4.373,0,0,0,1.263-.415.594.594,0,0,0,.309-.683l.291-.065.362,1.628-.292.065a.807.807,0,0,0-.315-.37,1.085,1.085,0,0,0-.483-.068,6.545,6.545,0,0,0-1.075.178L6.58,63.846l-.028-.124,8.106-5.309L7.9,59.921a2.706,2.706,0,0,0-1.192.471.553.553,0,0,0-.225.516l.026.117-.289.065-.388-1.749.289-.065a.6.6,0,0,0,.487.487,3.244,3.244,0,0,0,1.233-.107l7.5-1.675.26-.169a1.97,1.97,0,0,0,.5-.4.5.5,0,0,0,.071-.378l.291-.065.388,1.748"/><path class="cls-9" d="M19.112,65.132l-3.524,1.584-.044-.115A7.745,7.745,0,0,0,17.5,64.994q.592-.748.4-1.24c-.12-.313-.432-.477-.933-.495a5.9,5.9,0,0,0-1.927.349,22.433,22.433,0,0,0-2.366.912A22.358,22.358,0,0,0,10.211,65.8,4.823,4.823,0,0,0,8.8,66.969a1.024,1.024,0,0,0-.218.978.693.693,0,0,0,.2.274,1.448,1.448,0,0,0,.35.226l3.468-1.338a3.579,3.579,0,0,0,.749-.378.9.9,0,0,0,.261-.281.361.361,0,0,0,.041-.321l-.042-.107.272-.122.7,1.85-.272.122a.5.5,0,0,0-.276-.254.966.966,0,0,0-.434.031,5.647,5.647,0,0,0-.7.282L9.511,69.447a2.952,2.952,0,0,1-.966-.544,1.988,1.988,0,0,1-.567-.8,1.514,1.514,0,0,1,.006-1.162,4.226,4.226,0,0,1,.749-1.15,7.575,7.575,0,0,1,1.238-1.108,12.662,12.662,0,0,1,2.2-1.241,10.6,10.6,0,0,1,4.067-1.05q1.812-.037,2.2.967a1.429,1.429,0,0,1,.1.612,2.477,2.477,0,0,1-.168.591,1.538,1.538,0,0,0-.138.483c.022.058.093.088.213.092a2.379,2.379,0,0,0,.624-.121l.044.115"/><path class="cls-9" d="M20.937,67.632l1.594,2.137-.244.182-.079-.106a.522.522,0,0,0-.355-.252.822.822,0,0,0-.393.093,8.558,8.558,0,0,0-.979.67L16.133,73.6a11.434,11.434,0,0,0-1.518,1.263,2.065,2.065,0,0,0-.436.754.731.731,0,0,0,.107.676.863.863,0,0,0,.751.331,2.864,2.864,0,0,0,1.159-.312,14.194,14.194,0,0,0,2.073-1.362l3.622-2.7a5.352,5.352,0,0,0,.808-.694,1.031,1.031,0,0,0,.245-.409.624.624,0,0,0-.14-.5l.243-.181L24.115,71.9l-.243.182-.064-.085a.442.442,0,0,0-.366-.179,1.3,1.3,0,0,0-.577.169,6.007,6.007,0,0,0-.783.522l-3.374,2.515a23.092,23.092,0,0,1-2.332,1.588,3.928,3.928,0,0,1-1.626.483,1.44,1.44,0,0,1-1.342-.583,1.362,1.362,0,0,1-.311-1.061,2.943,2.943,0,0,1,.652-1.365A9.443,9.443,0,0,1,15.39,72.6l4.349-3.241a8.042,8.042,0,0,0,.923-.749.791.791,0,0,0,.2-.359.552.552,0,0,0-.163-.439l.243-.181"/><path class="cls-9" d="M25.967,73.35l-3.286,6.4,3.445-3.166a4.41,4.41,0,0,0,.886-.991.6.6,0,0,0-.074-.746l.219-.2,1.127,1.23-.22.2a.816.816,0,0,0-.457-.163,1.1,1.1,0,0,0-.453.183,6.653,6.653,0,0,0-.842.691L19.64,82.924l-.086-.093,4.365-8.651-5.095,4.684a2.706,2.706,0,0,0-.8,1,.555.555,0,0,0,.063.56l.081.088-.218.2-1.21-1.32.218-.2a.6.6,0,0,0,.665.178,3.266,3.266,0,0,0,1.014-.71l5.656-5.2.14-.276a1.958,1.958,0,0,0,.228-.594.5.5,0,0,0-.127-.363l.22-.2,1.21,1.321"/><path class="cls-9" d="M45.448,96.36l-.093.282-2.178-.657.094-.281.138.042a.365.365,0,0,0,.345-.074.929.929,0,0,0,.245-.33,7.794,7.794,0,0,0,.355-.95l2.267-6.8a8.529,8.529,0,0,0,.295-1A.832.832,0,0,0,46.9,86.2a.323.323,0,0,0-.228-.232l-.138-.042.094-.284L48.8,86.3l-.095.283-.138-.041a.362.362,0,0,0-.345.071.991.991,0,0,0-.248.329,8.124,8.124,0,0,0-.353.95l-2.267,6.8a8.785,8.785,0,0,0-.3,1,.892.892,0,0,0,.024.388.322.322,0,0,0,.227.235l.138.041"/><path class="cls-9" d="M74.105,89.191l.695,3.615-.145.029a6.175,6.175,0,0,0-.9-2.093q-.55-.747-1.015-.653a.667.667,0,0,0-.49.552,2.345,2.345,0,0,0-.028,1.05,2.529,2.529,0,0,0,.191.625,2.755,2.755,0,0,0,.462.678,8.546,8.546,0,0,0,.935.784,5.415,5.415,0,0,1,1.451,1.544A5.752,5.752,0,0,1,75.9,97.17a5.556,5.556,0,0,1-.042,2.439c-.193.717-.529,1.126-1.008,1.223a.943.943,0,0,1-.445-.018,2.493,2.493,0,0,1-.576-.292.459.459,0,0,0-.306-.1c-.062.012-.117.077-.165.2a1.5,1.5,0,0,0-.078.523l-.129.026-.744-4.1.13-.026a7.823,7.823,0,0,0,1.076,2.519q.608.822,1.118.718a.742.742,0,0,0,.54-.617,2.677,2.677,0,0,0,.029-1.185,3.092,3.092,0,0,0-.226-.729,2.723,2.723,0,0,0-.4-.629,5.349,5.349,0,0,0-.8-.714,7.3,7.3,0,0,1-1.162-1.052,4.526,4.526,0,0,1-.647-1.058,5.973,5.973,0,0,1-.406-1.364,5.418,5.418,0,0,1,.019-2.3q.255-1,.892-1.125a.9.9,0,0,1,.474.035,1.884,1.884,0,0,1,.468.277c.189.14.317.205.38.192s.1-.066.121-.158A2.814,2.814,0,0,0,74,89.213l.106-.022"/><path class="cls-9" d="M84.275,88.529l.85,4.228.087-.02c.246-.055,1.1,0,1.161-.728.038-.456-.027-.313-.114-1.069l.264-.135.826,3.865-.3.121c-.093-.582-.017-.45-.184-.825s-.211-.461-.35-.572-.965.075-1.172.122l.649,3.038a10.8,10.8,0,0,0,.263,1.081.791.791,0,0,0,.183.3.3.3,0,0,0,.3.067l.259-.058a1.145,1.145,0,0,0,.827-.921,2.991,2.991,0,0,0,.132-1.6l.4.024.2,2.768-3.759.848-.062-.293.144-.033a.365.365,0,0,0,.268-.237.915.915,0,0,0,.047-.411,7.97,7.97,0,0,0-.178-1.01l-1.515-7.094c-.1-.488-.174-.786-.208-.9a1.165,1.165,0,0,0-.21-.4.373.373,0,0,0-.381-.147l-.145.032-.063-.3,3.639-.822.726,2.478-.327.1a2.407,2.407,0,0,0-.459-.982,1.52,1.52,0,0,0-.635-.639,1.14,1.14,0,0,0-.7.009l-.449.1"/><path class="cls-9" d="M88.3,87.062l4.442,5.776-1.365-4.489a4.337,4.337,0,0,0-.515-1.233.626.626,0,0,0-.727-.262l-.087-.287L91.7,86.1l.087.286a.823.823,0,0,0-.36.339,1.057,1.057,0,0,0-.036.487,6.358,6.358,0,0,0,.257,1.061l2.645,8.694L94.165,97l-6.033-7.734,2.02,6.639a2.68,2.68,0,0,0,.567,1.158.587.587,0,0,0,.549.19l.118-.034.087.284-1.778.5-.086-.284a.605.605,0,0,0,.469-.517,3.149,3.149,0,0,0-.2-1.224L87.64,88.613l-.192-.249A2.027,2.027,0,0,0,87,87.9a.534.534,0,0,0-.4-.045l-.087-.286,1.777-.5"/><path class="cls-9" d="M95.559,84.675l1.179,3.64-.127.04a6.66,6.66,0,0,0-1.244-2.016c-.424-.422-.8-.583-1.133-.478q-.414.13-.576.806a4.428,4.428,0,0,0-.026,1.641,15.938,15.938,0,0,0,.637,2.668,21.072,21.072,0,0,0,.982,2.521,5.505,5.505,0,0,0,1.037,1.6.994.994,0,0,0,1.02.33,1.015,1.015,0,0,0,.625-.675,5.814,5.814,0,0,0,.249-1.726l.294.907a4.395,4.395,0,0,1-.343,1.581,1.323,1.323,0,0,1-.808.713,1.689,1.689,0,0,1-1.475-.277,5.1,5.1,0,0,1-1.476-1.669,12.979,12.979,0,0,1-1.761-5.552,5.98,5.98,0,0,1,.215-2.375,1.608,1.608,0,0,1,.956-1.121,1.584,1.584,0,0,1,1.14.168,1.129,1.129,0,0,0,.473.159c.069-.022.11-.1.122-.239a2.022,2.022,0,0,0-.087-.609l.127-.04"/><path class="cls-9" d="M97.742,84.589,99.316,88.6l.081-.034c.233-.1,1.086-.191,1.017-.919-.042-.456-.081-.3-.3-1.033l.237-.179,1.487,3.662-.277.171c-.193-.556-.1-.44-.325-.779s-.289-.418-.445-.5-.937.242-1.133.324l1.168,2.879a10.787,10.787,0,0,0,.448,1.019.816.816,0,0,0,.233.264.3.3,0,0,0,.3.014l.246-.1a1.143,1.143,0,0,0,.653-1.051,2.983,2.983,0,0,0-.148-1.594l.4-.047.674,2.692-3.554,1.49-.113-.278.137-.057a.37.37,0,0,0,.223-.28.923.923,0,0,0-.026-.414,7.843,7.843,0,0,0-.351-.963l-2.728-6.721q-.282-.695-.361-.845a1.162,1.162,0,0,0-.277-.36.373.373,0,0,0-.4-.078l-.136.057-.114-.28,3.441-1.444,1.146,2.314-.305.158A2.385,2.385,0,0,0,99.6,84.8a1.508,1.508,0,0,0-.737-.518,1.134,1.134,0,0,0-.692.13l-.424.178"/><path class="cls-9" d="M107.378,86.427l-2.353-2.467,1.17,3.063,1.183-.6m.482.519-1.52.874.522,1.546a4.882,4.882,0,0,0,.2.724,1.13,1.13,0,0,0,.48.513.72.72,0,0,0,.5-.084l.15.264-1.357.874-.15-.264a.873.873,0,0,0,.114-.667,6.131,6.131,0,0,0-.326-1.581L103.538,80.6l.233-.12,5.813,6.951a7.743,7.743,0,0,0,1.156,1.2.823.823,0,0,0,.574.169l.15.264-2.112,1.176-.15-.264.081-.053a.456.456,0,0,0,.244-.374.771.771,0,0,0-.121-.373,2.4,2.4,0,0,0-.168-.252,2.85,2.85,0,0,1-.4-.48Z"/><path class="cls-9" d="M106.9,78.727l6.036,4.081-2.71-3.83a4.338,4.338,0,0,0-.878-1.007.626.626,0,0,0-.772-.021l-.173-.244,1.423-.966.173.244a.823.823,0,0,0-.235.435,1.048,1.048,0,0,0,.119.474,6.4,6.4,0,0,0,.578.926l5.25,7.417-.109.074-8.163-5.439,4.009,5.664a2.676,2.676,0,0,0,.9.92.586.586,0,0,0,.58.008l.1-.07.171.243-1.528,1.037-.171-.242a.6.6,0,0,0,.281-.639,3.134,3.134,0,0,0-.571-1.1l-4.45-6.287-.261-.175a2,2,0,0,0-.571-.3.534.534,0,0,0-.389.081l-.173-.244,1.528-1.038"/><path class="cls-9" d="M117.357,68.571l2.344,1.8-.069.1a9.18,9.18,0,0,0-1.3-.7,1.77,1.77,0,0,0-.771-.138.544.544,0,0,0-.371.276l-.194.277L123.67,75.3a8.184,8.184,0,0,0,.851.605.872.872,0,0,0,.377.1.339.339,0,0,0,.3-.155l.087-.123.235.18-1.366,1.949-.235-.18.087-.124a.4.4,0,0,0,.047-.364.944.944,0,0,0-.228-.348,7.729,7.729,0,0,0-.783-.647l-6.675-5.115-.189.27a.73.73,0,0,0-.013.831,5.722,5.722,0,0,0,1.264,1.431l-.073.1-2.344-1.8,2.343-3.343"/><path class="cls-9" d="M118.986,67.19l3.642,2.312.045-.076c.131-.217.763-.8.278-1.343-.3-.343-.245-.2-.851-.657l.085-.284,3.363,2.077-.123.3c-.484-.336-.337-.3-.723-.438s-.479-.166-.655-.143-.614.749-.723.931l2.642,1.633a10.837,10.837,0,0,0,.964.558.8.8,0,0,0,.343.075.294.294,0,0,0,.253-.168l.138-.227a1.147,1.147,0,0,0-.093-1.235,2.994,2.994,0,0,0-1.062-1.2l.3-.273,2.133,1.774-1.988,3.3-.255-.157.077-.127a.372.372,0,0,0,.014-.358.936.936,0,0,0-.265-.318,7.792,7.792,0,0,0-.852-.571L119.5,68.767c-.425-.263-.687-.419-.79-.469a1.159,1.159,0,0,0-.435-.127.376.376,0,0,0-.371.174l-.076.127-.257-.159,1.924-3.2,2.292,1.19-.153.308a2.39,2.39,0,0,0-1.026-.348,1.511,1.511,0,0,0-.9.016,1.142,1.142,0,0,0-.481.514l-.238.394"/><path class="cls-9" d="M121.03,61.761l3.651,1.142-.04.127a6.635,6.635,0,0,0-2.364-.151c-.59.1-.94.318-1.046.649a.99.99,0,0,0,.325.936,4.414,4.414,0,0,0,1.325.969,15.891,15.891,0,0,0,2.545,1.023,21.23,21.23,0,0,0,2.625.655,5.521,5.521,0,0,0,1.907.08,1,1,0,0,0,.86-.642,1.02,1.02,0,0,0-.19-.9,5.849,5.849,0,0,0-1.265-1.2l.91.284a4.391,4.391,0,0,1,1.092,1.193A1.325,1.325,0,0,1,131.48,67a1.694,1.694,0,0,1-1.079,1.044,5.1,5.1,0,0,1-2.214.24,13,13,0,0,1-5.549-1.772,5.983,5.983,0,0,1-1.814-1.548,1.608,1.608,0,0,1-.363-1.428,1.587,1.587,0,0,1,.8-.834c.25-.142.386-.239.4-.294s-.02-.148-.126-.237a1.98,1.98,0,0,0-.546-.281l.041-.127"/><path class="cls-9" d="M127.172,60.934l3.315.763a7.834,7.834,0,0,0,1.036.2.888.888,0,0,0,.392-.074.373.373,0,0,0,.225-.279l.035-.157.291.067-.539,2.468-.291-.067.034-.157a.411.411,0,0,0-.095-.369.878.878,0,0,0-.35-.226,7.145,7.145,0,0,0-.985-.268L123.2,61.21a8.081,8.081,0,0,0-1.036-.2.86.86,0,0,0-.392.072.38.38,0,0,0-.222.28l-.035.157-.293-.068.538-2.468.294.067-.034.157a.406.406,0,0,0,.092.368.927.927,0,0,0,.349.231,7.532,7.532,0,0,0,.986.267l3.032.7.364-1.667-3.032-.7a8.046,8.046,0,0,0-1.035-.2.842.842,0,0,0-.393.074.384.384,0,0,0-.223.282l-.033.153-.294-.067.538-2.466.294.067-.034.154a.4.4,0,0,0,.093.369.939.939,0,0,0,.349.23,7.482,7.482,0,0,0,.986.267L131.1,58.9a8.322,8.322,0,0,0,1.035.2.848.848,0,0,0,.392-.075.378.378,0,0,0,.226-.281l.034-.153.291.067-.539,2.466-.291-.067.034-.154a.407.407,0,0,0-.095-.37.934.934,0,0,0-.349-.23,7.574,7.574,0,0,0-.986-.267l-3.315-.764-.364,1.668"/><path class="cls-9" d="M122.559,54.236l6.916-2.3-4.689-.186a4.329,4.329,0,0,0-1.334.081.625.625,0,0,0-.486.6l-.3-.012.1-1.717.3.012a.825.825,0,0,0,.2.451,1.046,1.046,0,0,0,.448.2,6.411,6.411,0,0,0,1.086.106l9.08.361-.007.13-9.289,3.155,6.934.275a2.667,2.667,0,0,0,1.28-.155.583.583,0,0,0,.36-.455l.007-.123.3.012-.109,1.844-.3-.012a.6.6,0,0,0-.335-.613,3.146,3.146,0,0,0-1.22-.218l-7.7-.3-.3.1a2.007,2.007,0,0,0-.588.27.533.533,0,0,0-.173.357l-.3-.011.109-1.844"/><path class="cls-9" d="M122.859,48.853q.094.624,1.676.754a18.84,18.84,0,0,0,3.65-.2,15.3,15.3,0,0,0,4.075-.936c.6-.269.866-.575.815-.918a.7.7,0,0,0-.489-.525,5.069,5.069,0,0,0-1.72-.248,21.41,21.41,0,0,0-2.977.212,22.841,22.841,0,0,0-3.219.581,4.639,4.639,0,0,0-1.458.622.716.716,0,0,0-.353.654m-.508.107c-.175-.716.246-1.369,1.256-1.96a10.51,10.51,0,0,1,3.954-1.2,12.186,12.186,0,0,1,3.736.039q2.2.4,2.382,1.627t-1.715,2.152a11.827,11.827,0,0,1-3.668,1.008,10.612,10.612,0,0,1-4.163-.172Q122.4,49.977,122.351,48.96Z"/><path class="cls-9" d="M116.862,36.3l3.287-2.188.067.1a7.814,7.814,0,0,0-1.693,1.931q-.463.843-.181,1.292.27.429,1.039.321a6.234,6.234,0,0,0,1.893-.688,23.543,23.543,0,0,0,2.235-1.32,22.636,22.636,0,0,0,2.271-1.7A4.853,4.853,0,0,0,127,32.647a1,1,0,0,0,.041-1,.7.7,0,0,0-.251-.234,1.487,1.487,0,0,0-.4-.159l-3.276,1.935a3.735,3.735,0,0,0-.691.506.88.88,0,0,0-.213.323.35.35,0,0,0,.017.323l.062.1-.253.169-1.048-1.7.254-.169a.519.519,0,0,0,.326.2,1.037,1.037,0,0,0,.436-.108,6.025,6.025,0,0,0,.656-.4l3.152-2.1a3.121,3.121,0,0,1,1.082.363,2.024,2.024,0,0,1,.723.685,1.471,1.471,0,0,1,.208,1.144,4.152,4.152,0,0,1-.548,1.265A7.648,7.648,0,0,1,126.23,35.1a13,13,0,0,1-2,1.613,11.121,11.121,0,0,1-3.938,1.76q-1.833.36-2.413-.558a1.384,1.384,0,0,1-.216-.585,2.446,2.446,0,0,1,.061-.611,1.475,1.475,0,0,0,.052-.5c-.034-.053-.111-.07-.234-.053a2.558,2.558,0,0,0-.611.231l-.066-.105"/><path class="cls-9" d="M113.685,31.945l.242-.181a.61.61,0,0,0,.475.09,12.479,12.479,0,0,0,1.83-.684l3.826-1.587,2.133-1.593a8.344,8.344,0,0,0,.827-.665.878.878,0,0,0,.2-.335.334.334,0,0,0-.058-.331l-.163-.2.24-.179,1.639,2.062-.24.179-.153-.193a.4.4,0,0,0-.342-.154.92.92,0,0,0-.4.123,7.354,7.354,0,0,0-.844.581l-1.769,1.321-3.091,3.686a10.127,10.127,0,0,0-1.028,1.347.4.4,0,0,0,.02.434l-.242.18-1.4-1.761.242-.18.062.078a.31.31,0,0,0,.289.141.573.573,0,0,0,.283-.111,9.24,9.24,0,0,0,1-1.1l2.393-2.846-3.187,1.327a8.483,8.483,0,0,0-1.49.72.655.655,0,0,0-.235.288.524.524,0,0,0,.074.484l-.242.181-.892-1.122"/><path class="cls-9" d="M120.635,41.41q.27.569,1.81.223a18.751,18.751,0,0,0,3.41-1.271,15.213,15.213,0,0,0,3.6-2.1c.488-.434.656-.807.508-1.119a.692.692,0,0,0-.617-.357,5.029,5.029,0,0,0-1.7.274,21.269,21.269,0,0,0-2.767,1.086,22.768,22.768,0,0,0-2.887,1.511,4.631,4.631,0,0,0-1.2,1.027.72.72,0,0,0-.145.73m-.452.253q-.561-.948.624-2.246a10.491,10.491,0,0,1,3.407-2.316,12.072,12.072,0,0,1,3.56-1.072q2.2-.266,2.734.849t-1,2.565a11.785,11.785,0,0,1-3.191,2.052,10.509,10.509,0,0,1-4,1.072Q120.528,42.619,120.183,41.663Z"/><path class="cls-10" d="M96.167,13.388a1.173,1.173,0,0,0-.759.111,8.065,8.065,0,0,1-1.138.019c-.134-.14.531-.881.583-.986.219-.226.771-.795.969-1.029a.835.835,0,0,0,.381-.391c.189-.444-.22-1.177-.346-1.6-.059-.144-.22-.757-.392-.816l-.317.079-.176.246a4.071,4.071,0,0,0-.3.749,18.223,18.223,0,0,1-2.462,3.563,22.213,22.213,0,0,1-3.356-.193c-.365-.108-1-.537-1.37-.345-.122.194.128.623.2.793l.216.563c.139.281.343.733.7.777a10.593,10.593,0,0,1,2.191-.259c.048.291-.441.477-.623.594a7.605,7.605,0,0,1-1.965.622,11.4,11.4,0,0,1-1.9-.12c-.168,0-.594-.186-.706,0-.087.137.748.581.787.64a4.791,4.791,0,0,0,1.214.51c2.018.464,3.958-1.1,5.37-2.346a4.611,4.611,0,0,1,.969-.084l1.572.019c.247.038.779.127,1.019.18l.266-.133C97.052,14.129,96.6,13.522,96.167,13.388Zm18.524,5.429c-.087-.283-.226-.711-.538-.816-.74-.177-1.6-.5-2.329-.723-.211,0-.8.062-.7-.3,1.179-.089,1.61.3,1.41-1.223-.033-.412-.29-.861-.729-.527-.111.209-.656.331-.857.387-.106,0-.3-.013-.366-.117-.1-.162-.371-.562-.48-.727-.133-.206-.276-.3-.506-.164-.212.18,0,.591.011.823.17.784-.5.452-.955.473-.423-.162-.343-.215-.235-.6a3.893,3.893,0,0,0-.127-2.6c-.174-.225-.46-.271-.5.068,0,.331-.022,1.021-.048,1.354-.15.4-.293,1.208-.619,1.475l-.092-.067c.051-.518.172-1.587-.4-1.842-.326.084-.274.817-.335,1.058-.114.273-.66,1.668-.781,1.976-.4,1.178.5.8.841.1.337-.123.263.295.263.489.011.276.021.763.38.8a.879.879,0,0,0,.731-.468,4.346,4.346,0,0,1,.364-.985c.065-.426.267-.284.587-.291.228.093.949.109,1,.422-.047.13-.4.149-.505.163l-.547.208a2.319,2.319,0,0,0-.581.675.336.336,0,0,0-.039.266l.085.3c.343.637.6.924,1.363.921.885.038,1.394-.734,1.517-1.531.245-.068.6.136.819.247,1.345.409,1.428.979-.019,1.249a7.791,7.791,0,0,1-2.523.437c-.273-.118-.871-.316-1.16-.4-.613-.213-1.437-.541-2.05-.754l-.633-.235c-.16-.064-.457-.232-.49.061.139.3.311.881.694.924a4.283,4.283,0,0,0,1.263.3,5.868,5.868,0,0,0,.764.222c.225.095.819.1.706.464a4.034,4.034,0,0,1-1.89.582c-1.388-.346-2.937-.844-4.325-1.235-.23-.083-.828-.282-1.049-.359a4.192,4.192,0,0,0-1.068-.46c-.209.215.069.9.079,1.157.131.36.22,1.04.576,1.259.965.123,2.13-.034,3.1.044.332.062,1.323.036,1.569.3.027.184-.227.341-.317.477a25.184,25.184,0,0,1-2.61,2.47c-.715.157-1.348-.756-1.814-1.17-.058-.062-.145-.007-.21.018,0,.36.4.865.513,1.2a7.8,7.8,0,0,0,.58,1.321l.145.218a.413.413,0,0,0,.213.164l.235.08c.522.06.987-.419,1.313-.774.141-.2,1.738-2.069,1.738-2.069a21.731,21.731,0,0,1,1.58-1.523,1.433,1.433,0,0,1,.434.1.345.345,0,0,1,.148.484c-.116.16-.826.538-.461.723a3.393,3.393,0,0,1,1.326.437c.275.028.829.181.879-.22a2.3,2.3,0,0,0-.69-1.68c-.107-.076-.383-.18-.289-.357a9.124,9.124,0,0,1,1.95.175c.119.013.332,0,.413-.1.206-.228.069-.727.062-1.007-.021-.068-.1-.288-.063-.357a5.379,5.379,0,0,1,2.251.23c.547.173,1.255.594,1.722.049A1.532,1.532,0,0,0,114.691,18.817Zm-4.683-.625c-.147.19-.309.48-.594.4a2.142,2.142,0,0,1-.268-.429.461.461,0,0,1,.3-.451c.109-.009.434-.091.514.026C110.156,17.8,110.048,18.058,110.008,18.192Zm-54.43-9.2.326-.075a11.857,11.857,0,0,1,2.121-1.307c.346-.14.9-.162,1.115-.5a1.2,1.2,0,0,0-.659-1.71c-.116-.019-.17.073-.213.186.181.281-.927,1.031-1.049,1.194a12.266,12.266,0,0,0-1.752,1.986c-.025.041-.329.266-.259.338C55.319,9.153,55.481,9.037,55.578,8.993Zm3.69,2.578a7.786,7.786,0,0,0-.545.65c-.253.025-.125-.326-.118-.457l.076-.664A5.546,5.546,0,0,1,59.2,9.7c0-.238-.261-.469-.43-.608a1.206,1.206,0,0,0-.881-.468c-.326.142-.353.593-.414.9-.753,1.321-2.36,2.1-3.427,3.115a1.314,1.314,0,0,0,.829.427,1.639,1.639,0,0,0,.288-.013c.923-.079,1.638-1.73,2.247-2.043.122,0,.12.85.12.85s0,.507,0,.608.094.967.089,1.021a.917.917,0,0,1-.218.33.223.223,0,0,1-.163-.008c-.009-.062.074-.1.075-.2s-.151-.724-.446-.5c-.244.59-.926,1.139-.834,1.822.163.277.137.737.439.909.249,0,.519-.469.676-.621.06-.068.4-.543.5-.528.135.145.108.516.153.7.095.148.38.191.521.279a.735.735,0,0,0,.562-.264c.115-.146-.053-.343-.075-.5a5.551,5.551,0,0,0-.123-1.025c-.073-.519.472-1.1.69-1.532a12.764,12.764,0,0,0,.6-1.243.506.506,0,0,0-.074-.4C59.66,10.832,59.444,11.361,59.268,11.571Zm22.5,3.493c-1.644.085-2.407-.616-3.44-1.758a6.372,6.372,0,0,1,.895-1.286l.262-.215c.027-.053.1-.341.169-.367-.077-.382-.513-.637-.838-.79-.127-.037-.3.03-.422.007a2.806,2.806,0,0,1,.582-1.327c.265-.364.545-1.032.984-1.212a5.894,5.894,0,0,0,.867-.425.3.3,0,0,0,.125-.31l-.263-.434a1,1,0,0,1-.253-.128c-.012-.513-.62-.875-.99-1.14l-.22-.076L79,5.692a2.983,2.983,0,0,0-.11.756l-.2.523-.228.571-.356.267c-.882.358-1.818.989-2.729,1.3-.066.374.717.558,1,.616.426-.057.981-.6,1.368-.738a7.836,7.836,0,0,1-.571,1.433c-.064.1-.29.407-.26.54a.683.683,0,0,0,.113.36c.047.1.16.267.286.284a4.293,4.293,0,0,0,.572-.285l.134.07c.066.3-.476.86-.618,1.1-.17-.077-.368-.436-.564-.5-.211-.117-.527-.426-.785-.283-.1.28.224.708.333.948.067.159.218.481.3.632.133.161-.178.446-.237.588a7.615,7.615,0,0,1-1.341,1.179c-.324.154-1.055.576-1.255.067a26.041,26.041,0,0,1,1.506-6.643c.227-.177.714-.5.961-.651l.341-.218.041-.226c-.115-.118-.249-.69-.5-.377l-.08-.062c.349-.311-.694-1.211-.944-1.386-.121-.024-.351.142-.443.205l-.091.41a9.954,9.954,0,0,1-.371,1.3l-1.164.588a.876.876,0,0,0-.564.123c-.04.087.195.479.228.557.1.135.353.52.554.516l.166-.02c.075-.079.186-.232.315-.168a5.635,5.635,0,0,0-.283,1c-.188.539-.946.951-1.337,1.333-.362.34-1.107,1.011-1.482,1.338a.938.938,0,0,1-.515.253c-.781.391-.658.4-.165,1.032a2.409,2.409,0,0,0,.489.211.141.141,0,0,0,.1-.006,5,5,0,0,0,1.115-.787.773.773,0,0,0,.167-.214,3.239,3.239,0,0,1,.458-.647c.231-.278.566-.8.825-1.05l.087.037c-.055.193-.257.988-.31,1.2-.108.291-.154,2.32-.572,2.4-.145-.007-.443-.041-.588-.062-.3-.111-.544-.258-.843-.034l0,.126a14.181,14.181,0,0,1,1.581,1.107l.194.189a.233.233,0,0,0,.226.207,1.131,1.131,0,0,0,.81-.863l.081-.016c.391.658.492.566,1.137.3a11.381,11.381,0,0,0,2.373-1.756,5.949,5.949,0,0,1,.827,1.178c.1.193.242.561.5.581a4.758,4.758,0,0,0,2.057-.335c.339-.159,1.2-.256,1.4-.6C82.055,15.033,81.917,15.059,81.765,15.064ZM64.184,8.847c-.021-.154-.064-.31-.185-.321-.137.038-.05.485-.058.575a2.144,2.144,0,0,1-.556,1.192c-.079-.015-.1-.172-.111-.228-.052-.516.006-1.235,0-1.771a.824.824,0,0,1,.012-.157c.25-1.459.111-2.45-1.622-2.589-.448.385-.158,1.059,0,1.521A5.483,5.483,0,0,1,61.883,8.2c.171.923.182,2.185.338,3.115,0,.093.02.379-.074.441-.115.086-.623.559-.745.611l-.062-.027c-.039-.155.141-.377.178-.526l-.023-.376c-.048-.521-.747-.835-.712-1.368a2.814,2.814,0,0,0,.172-1.639c-.2-.413-1.813-1.674-1.731-.592a4.143,4.143,0,0,0,1.122,1.58c.169.352-.077.823-.073,1.183.137.309.262.754.383,1.069a1.512,1.512,0,0,1,.1.992c-.088.271-.378.75-.324,1.04.224.354.7.222,1,.053l.508-.488c.049-.051.3-.428.393-.4.173,1.433.35,3.416.514,4.859.056.351-.032.706.467.649a1.035,1.035,0,0,0,.48-.672,17.47,17.47,0,0,0-.127-3.51c-.073-.568-.109-1.43-.187-2a.862.862,0,0,1,.4-.906c.161-.239,1.047-1.018.96-1.347a3.126,3.126,0,0,0-.438-.625A.9.9,0,0,1,64.184,8.847ZM34.54,23.7c-.106-.167-.565-.892-.652-1.049A19.254,19.254,0,0,1,35.1,20.909c.259-.708-.31-.572-.768-.55a8.814,8.814,0,0,1-1.078,0c-.092-.149,0-.176.134-.45.23-.385.494-.785.7-1.113A9.43,9.43,0,0,0,35.1,16.972a1.162,1.162,0,0,0-.817-.407.859.859,0,0,0-.774.314,16.38,16.38,0,0,1-.912,1.615c-.278.009-.03-1.075-.064-1.212.052-.231.284-.464.351-.691.092-.212.267-.612.076-.814a.9.9,0,0,0-.667.035c-.267-.037-.69-.1-.961-.112-.212.074-.253.24-.246.447l.2.324a2.09,2.09,0,0,1,.181.674,1.648,1.648,0,0,1-.41.893c-.152.166-.514-.046-.692-.079-.054-.015-.309,0-.313-.092l.116-.656c.071-.809.1-.813.686-1.359a6.116,6.116,0,0,0,.679-1.3.971.971,0,0,0-.307-1c-.453-.085-1.437-.5-1.881-.273a2.846,2.846,0,0,0-.039,1.887c.154.593.265,1.17-.431,1.446a1.745,1.745,0,0,1-.171-.535,3.315,3.315,0,0,1-.291-.572c-.049-.068-.288-.517-.4-.559a6.41,6.41,0,0,0-1.635.031c-.364.153-.539.249-.285.656.146.135,1.178.419,1.5.582a2.055,2.055,0,0,0,1.036.458l.057.09c-.008.179-.566.5-.684.587-.373.267-.822.551-1.189.822-.3.115-.694.484-.979.636-.374.678.813.681,1.217.779.3.064.518-.187.631-.437l.524-.689c.292-.246,1.072-1.424,1.467-1.266a5.522,5.522,0,0,1,.042.751c-.058.128-.268.112-.385.129-.1.034-.269.043-.281.174-.049.142-.108.35,0,.481.25.228.64.482.767.811l-.05.1a5.331,5.331,0,0,0-.747-.016c-.1.146.041.422-.074.566-.467-.012-1.047-.166-1.524-.15-.226-.025-.59-.107-.548.242.218.407.82.673,1.131,1.007.077.194-.165.476-.265.627l.061.126a10.5,10.5,0,0,1,1.6.235c.585-.366.31-1.559.768-2.071.307-.011.486.546.631.746a5.561,5.561,0,0,1-.724.968,37.887,37.887,0,0,1-3.429,3.648c.065.19.129.408.367.395a3.761,3.761,0,0,0,1.715-.364c.56-.513.763-1.482,1.25-2.08.214-.373.708-1.191.966-1.528.194-.417.325-.564.608-.107.121.42-.243.843-.416,1.2a12.311,12.311,0,0,0-1.17,3.134c-.184.605-.019.627.548.552.391-.087.793-.753,1.045-1.027a10.549,10.549,0,0,1,1.352-1.8s.4.677.486.8c.131.14.286.435.41.579.152.227.837,1.292.963,1.479a1.973,1.973,0,0,1,.358.337,2.488,2.488,0,0,0,.572.08c.124-.022.211-.62.208-.706a3.492,3.492,0,0,0-.436-1.408C35.3,24.715,34.739,24.059,34.54,23.7ZM30.145,14.27a.4.4,0,0,1,.493.274.937.937,0,0,1-.168.531c-.053.1-.21.211-.309.113a2.12,2.12,0,0,1-.071-.619A.458.458,0,0,1,30.145,14.27Zm.922,4.316c-.084-.18-.029-.4.2-.387.164-.066.382-.272.56-.141a2.656,2.656,0,0,1,.342.97.736.736,0,0,1-.189.489c-.05.06-.134.151-.223.111C31.463,19.39,31.314,18.874,31.067,18.586ZM32.2,23.293c-.187.288-.607.85-.824,1.118-.084.1-.35.51-.494.538l-.031-.047c.248-.763.77-1.529,1.061-2.277.166-.076.275.167.338.274A.412.412,0,0,1,32.2,23.293Zm.019-2.966c.057-.426.525-.794.724-1.158.107-.2.285-.6.544-.615.068.194-.123.458-.241.6a2.718,2.718,0,0,1-.307.652C32.817,20.175,32.693,20.522,32.219,20.327Zm1.3,1.3a.52.52,0,0,1-.2.134l-.022-.026c-.133-.062-.519-.578-.435-.755.213.075.622.155.742.352A.761.761,0,0,1,33.522,21.629Zm12.125-6.67c.039-.1.09-.161.2-.152a2.558,2.558,0,0,0,.365-.16c.279-.3.675-.765.988-1.032.148-.077.273-.562.327-.7a.506.506,0,0,0-.057-.185l-.2-.092c-.6-.13-.816-.1-.725-.8a4.071,4.071,0,0,1,1.015-1.77c.483-.641.244-1.38-.639-1.237-.162.049-.637.3-.8.367a4.685,4.685,0,0,0-.723.883c-.186.264-.539.81-.7,1.087-.09.119-.192.486-.388.288a6.671,6.671,0,0,1-.385-1.087c-.119-.426.016-1.141-.552-1.232a5.42,5.42,0,0,0-.877-.118c-.129-.01-.42-.074-.519.066-.111.263-.443.848-.383,1.135.247.377.735.684,1.017,1.035.271.561.762,1.311.979,1.891-.033.027-.809,1.971-.913,1.859a3.744,3.744,0,0,1-.913-.874,2.006,2.006,0,0,0-.357-.338,1.035,1.035,0,0,1-.276-.28c-.456-.034-.382.375-.391.692a6.165,6.165,0,0,0,.1,1.042c.07.538.011,1.283.429,1.7.493.181,1.384.576,1.809.125a15.016,15.016,0,0,1,.744-2.519c.231-1.092,1.581,3.429,1.73,3.566a6.361,6.361,0,0,0,.942,2.539,2.291,2.291,0,0,0,1.055.76c.263.064.411-.153.526-.352a4.048,4.048,0,0,0-.715-2.137A39.012,39.012,0,0,1,45.647,14.959Zm-.532-1.187a4.9,4.9,0,0,0-.379-.925c-.047-.386.349-.9.538-1.21.055-.085.193-.327.31-.34.209.229.178.8.242,1.092a1.389,1.389,0,0,1-.044,1.068C45.61,13.656,45.348,14.239,45.115,13.772Zm49.612,5.644a4.181,4.181,0,0,1-1.094-1.781,6.97,6.97,0,0,1-.25-1.618c-.023-.289.06-.809-.313-.895-.259.027-.331.15-.333.4-.045.2-.121.6-.152.8-.115.919-.236,1.944-.343,2.861.288,1.015.633.576,1.413.859a12.64,12.64,0,0,0,1.86.246C95.656,19.875,94.961,19.653,94.727,19.416Z"/></svg>