<svg id="图层_1" data-name="图层 1" xmlns="http://www.w3.org/2000/svg" viewBox="0 0 169.404 169.404"><defs><style>.cls-1{fill:#e60012;fill-rule:evenodd;}</style></defs><path class="cls-1" d="M86.578,112.937h-3.27V77.152c-.031-2.485-.47-4.524-3.6-4.649-2.219-.089-3.969,1.5-4,4.649-.248,10.677-.52,21.355-.745,32.034-.136,6.447,2.955,11.664,9.981,11.664s10.116-5.216,9.98-11.664c-.225-10.679-.5-21.356-.745-32.034-.03-3.144-1.781-4.738-4-4.649-3.13.125-3.569,2.164-3.6,4.649Q86.578,95.042,86.578,112.937Z"/><path class="cls-1" d="M20.269,56.022c-.287.2-1.022-.3-1.623,0a2.074,2.074,0,0,0-1.021,1.021c-.181.361,0,1.442,1.2,2.224a17.016,17.016,0,0,0,6.168,1.464c.814-.127,1.441-1.817.752-1.942S23.3,58.162,22.8,57.35a8.92,8.92,0,0,1-1.252-5.263c.063-2.943,1.112-4.565,1.517-4.879s1,.242,1.128.425,1,2.707,1.119,2.824.1.792-.445.5a1.466,1.466,0,0,0-1.629-.124c-.5.375-.939.813-.375,1.439a1.5,1.5,0,0,0,1.629.439c.375-.125,1.064-.313.876.063a7.573,7.573,0,0,0-.125,1.941s-.565.689,0,1.191,1.566.5,1.566.062a19.033,19.033,0,0,1,.125-2.505c.125-.752.377-2,.878-2.256s.876-.062,1.69-.563a4.362,4.362,0,0,0,1.755-2.569c.062-.751.562-4.759,1-5.386s1.565-1,.5-2-5.261-1.44-7.265.125a14.444,14.444,0,0,0-4.7,6.765c-1.064,3.007-1.252,4.574-.876,6.14s.63,2.109.347,2.307Zm6.394-5.628a.777.777,0,0,0-.334.443,20.994,20.994,0,0,1-.165-3.438c0-1-.721-1-1.443-.943s-.72.054-1.109.109A10.43,10.43,0,0,1,25,44.031a5.852,5.852,0,0,1,3.72-2.624c.884-.088.389,2.774.332,3.55s-.166,3.218-.222,3.717-.553.389-1.274.556S26.663,50.394,26.663,50.394Z"/><path class="cls-1" d="M51.955,18.98c-.6.326-.884.744-.325,1.721s1.209.791,1.72,2.557,1.535,5.347,1.767,5.905a6.056,6.056,0,0,1,.139,2c0,.419.279,1.674,1.209,1.488s.511-1.3.418-1.86-1.348-5.161-1.674-5.858a16.939,16.939,0,0,1-1.022-3.069A2.929,2.929,0,0,0,53.536,20C52.978,19.4,52.559,18.655,51.955,18.98Z"/><path class="cls-1" d="M56.325,18.051c-.279.093-.744.233-.79.791s.558,1.255.93,1.674a3.734,3.734,0,0,1,.883,1.4c.139.511,1.4,3.72,1.813,3.9S60,25.444,60,24.607a3.924,3.924,0,0,0-.558-2.278,2.172,2.172,0,0,1-.6-1.627,3.944,3.944,0,0,0-1.023-2.185A1.333,1.333,0,0,0,56.325,18.051Z"/><path class="cls-1" d="M59.254,10.657c-.342.047-1.023.28-1.162.652a1.565,1.565,0,0,0,.557,1.534,3.457,3.457,0,0,1,.977,1.535c.093.418,2,4.65,2.464,5.765s1.209,3.3,1.86,4.7,1.636,3.965,2.464,4.417,1.207-.873.708-1.518a7.965,7.965,0,0,1-1.22-1.644c-.743-1.256-3.72-8.229-3.905-8.787a18.538,18.538,0,0,1-.879-3.343c0-.7.553-1.632.134-2.283C61.069,11.029,59.6,10.612,59.254,10.657Z"/><path class="cls-1" d="M112.759,27.577c.12,1.122.641,4.57,2.405,4.69s1.884-1.884,1.483-2.565-2.725-3.246-2.725-3.246C112.94,25.383,112.686,26.889,112.759,27.577Z"/><path class="cls-1" d="M152.351,50.444a1.951,1.951,0,0,0-.656.7c-.132.262-.394.743-.613.787s-1.573.35-1.88.438-1.223.218-1.4.48a7.264,7.264,0,0,1-.656.744s0,.524.393.524a.358.358,0,0,1,.393.35s-.044.743-.262.612-.3-.044-.613-.336-2.828-2.693-2.828-2.693-.561-.875-.695-1.122-.158-.673-.584-.673a1.191,1.191,0,0,0-1.077.651,1.781,1.781,0,0,0,.336,1.432,11,11,0,0,0,2.32,1.486A12.815,12.815,0,0,1,147.071,56a18.315,18.315,0,0,1,2.409,3.071c.378.826.024,1.134-.26,1.063a4.28,4.28,0,0,1-1.11-.614.362.362,0,0,0-.449-.023,4.619,4.619,0,0,0,.537.956c.469.72.814,1.848,1.1,1.879s1.848-.939,1.566-1.973a8.931,8.931,0,0,0-1.065-2.349c-.187-.251-.062-.595.407-.376a4.033,4.033,0,0,0,1.848.564c.814,0,1.1.282,1.347-.063a11.221,11.221,0,0,0,.845-1.159c.063-.188.47-.156.909.313s1.19.908,1.5.438-.125-1.065.282-1.221.532-.5.752-.219.407.595.563.407a6.271,6.271,0,0,0,.689-.783c.22-.345.094-.971-.251-.94a6.28,6.28,0,0,0-1.159.282c-.281.094-.689.125-.845.376s-.219.376-.439.376a.932.932,0,0,1-.877-.219c-.344-.345-.407-.595-.752-.626s-1.127.219-1.159.376.219.533-.407.595-2.192-.188-2.411-.063.031.533-.283.626-.814.439-1.064.282a4.675,4.675,0,0,1-.72-.782s-.438-.721.282-.721a16.034,16.034,0,0,0,2.036-.219c.219-.032.564.063.5-.251s.564-.125.313-.438-.469-.533,0-.595,2.224,0,3.195-.157,1.033-.532,1.127-.877-.626-1-.939-.908-.657.689-1.1.877-1.848.564-2,.627a8.833,8.833,0,0,1-1.347.282c-.209,0-1.211-.752-.407-.845a5.345,5.345,0,0,0,2.192-.658,2.764,2.764,0,0,0,.783-1.66C153.146,50.4,152.525,50.369,152.351,50.444Z"/><path class="cls-1" d="M144.46,55.264a.828.828,0,0,0-.576.947c.123.37.782.452.864.905.138.759-1.1.905-1.563.905,0,0-1.441-1.564-1.6-1.852s-.7-1.811-1.194-1.523a1.355,1.355,0,0,0-.576,1.6,7.913,7.913,0,0,0,1.317,1.317c.535.535,1.07,1.111,1.07,1.317a1.081,1.081,0,0,1-.823.823c-.535.123-1.975.288-2.222-.041a2.364,2.364,0,0,1-.412-1.522c.082-.494.123-1.605-.412-1.235s-.37.7-.7,1.029-.617,1.358-.247,1.77a3.371,3.371,0,0,0,2.469.864c1.153-.041,1.688-.247,2.058-.247s.906-.453.946-.082.288,1.892.9,1.81,1.4-.411,1.276-.946a10.818,10.818,0,0,0-.864-1.811s-.123-.947.206-.823a7.281,7.281,0,0,0,1.482.288c.452.041,1.316-.247,1.111-.823a14.313,14.313,0,0,0-1.482-2.017C145.284,55.592,144.872,55.1,144.46,55.264Z"/><path class="cls-1" d="M115.514,17.446a18.59,18.59,0,0,0-1.609,2.18c-.044,0-.081-.005-.108-.005a5.748,5.748,0,0,1-2.4-.24,7.8,7.8,0,0,0-1.682-1.021.972.972,0,0,0-1.021.781c-.18.6-.12,1.2.721,2.1s1.022.781,1.8.6a11.48,11.48,0,0,1,1.273-.191,6.088,6.088,0,0,1-.647.816c-.418.325-1.72,1.86-2.511,2.418s-2.935,1.514-2.836,1.581-.493.152-.558-.511-.464-.093-1.115.279-.233,1.162-.326,1.627-.079.8.8.665,1.745-1.083,2.768-1.595a15.085,15.085,0,0,0,3.635-2.185,36.535,36.535,0,0,0,2.534-3.3c.91-.089,2.666-.089,3.046-.089.421,0,.841.361,1.5.3s1.381-.36.961-.9-.781-1.2-1.442-1.021a10.357,10.357,0,0,1-1.725.171,7.1,7.1,0,0,1-1.233-.1c.321-.423.645-.834.82-1.11a2.034,2.034,0,0,1,.744-.791,3.793,3.793,0,0,0,1.023-1.069,2.151,2.151,0,0,0-.279-2,1.02,1.02,0,0,0-1.4.512C115.932,15.958,115.746,17.4,115.514,17.446Z"/><path class="cls-1" d="M84.842,44.653c-.292,0-.583.005-.875.017-.22-1.517-1.059-3.349-2.889-3.405-1.385-.042-2.243.057-3.658.048a3.5,3.5,0,0,1-2.938-1.283c.359,1.885.9,3.782,2.993,4.11a19.3,19.3,0,0,0,2.826.1,5.038,5.038,0,0,1,2.625.5c-3.552.317-6.768,1.609-7.872,4.8-.984,2.849-.7,9.8-1.337,12.992h-4.49c-3.893-.074-5.043,3.194-5.306,7.311-.674,11.592-1.44,23.179-2.02,34.775-.458,9.146-2.391,13.285-5.282,16.421h6.366a29.048,29.048,0,0,0,3.111-4.187,16.548,16.548,0,0,1-1.781,4.187h5.523a17.325,17.325,0,0,0,1.443-7.042c.6-12.981,1.149-25.964,1.724-38.945.067-2.092.762-3.338,2.458-3.361h8.415V54.438a4.474,4.474,0,1,1,1.923,0v17.25h8.415c1.7.023,2.39,1.269,2.458,3.361.575,12.981,1.125,25.964,1.724,38.945a17.325,17.325,0,0,0,1.443,7.042h5.523a16.584,16.584,0,0,1-1.781-4.187,28.939,28.939,0,0,0,3.112,4.187h6.364c-2.89-3.137-4.824-7.275-5.281-16.421-.581-11.6-1.346-23.183-2.02-34.775-.263-4.117-1.413-7.385-5.307-7.311h-4.49c-.638-3.2-.353-10.143-1.337-12.992-1.1-3.195-4.32-4.486-7.872-4.8a5.035,5.035,0,0,1,2.626-.5,19.451,19.451,0,0,0,2.827-.1c2.09-.328,2.634-2.225,2.993-4.11a3.5,3.5,0,0,1-2.937,1.283c-1.415.009-2.272-.09-3.658-.048-1.83.056-2.669,1.888-2.889,3.405C85.425,44.658,85.133,44.653,84.842,44.653Z"/><path class="cls-1" d="M84.7,0A84.7,84.7,0,1,1,0,84.7,84.865,84.865,0,0,1,84.7,0Zm0,2.983a81.72,81.72,0,1,0,81.72,81.72A81.878,81.878,0,0,0,84.7,2.983Z"/><path class="cls-1" d="M10.4,82.4l3.925-.069.007.4a3.619,3.619,0,0,0-2.309,1.323,3.745,3.745,0,0,0-.883,2.514,2.384,2.384,0,0,0,.45,1.465,1.306,1.306,0,0,0,1.1.543q1.026-.018,2.134-2.692l.008-.024.2-.491A5.914,5.914,0,0,1,16.6,82.9a2.9,2.9,0,0,1,.787-.424,2.811,2.811,0,0,1,.887-.156A3.108,3.108,0,0,1,20.755,83.4a4.283,4.283,0,0,1,1.02,2.873,5.8,5.8,0,0,1-.347,2,9.508,9.508,0,0,0-.359,1.137.419.419,0,0,0,.165.371,1.311,1.311,0,0,0,.588.13l.007.426-3.462.061-.006-.366a3.225,3.225,0,0,0,1.984-1.218,3.453,3.453,0,0,0,.734-2.257,2.088,2.088,0,0,0-.391-1.288,1.157,1.157,0,0,0-.975-.473q-.87.015-1.686,2.086l-.069.174q-.594,1.484-.915,2.077a3.519,3.519,0,0,1-.639.891,3.427,3.427,0,0,1-1.055.7,3.365,3.365,0,0,1-1.233.249,3.261,3.261,0,0,1-2.6-1.107,4.423,4.423,0,0,1-1.048-2.984,7.038,7.038,0,0,1,.328-2.18,12.76,12.76,0,0,0,.344-1.23.586.586,0,0,0-.2-.442.856.856,0,0,0-.531-.2L10.4,82.4Zm3.779,17.147a1.754,1.754,0,0,0-1.1.51,1.5,1.5,0,0,0-.193,1.12l-.389.069-1.062-6.021.389-.069a1.467,1.467,0,0,0,.561.988,1.772,1.772,0,0,0,1.215.1l6.764-1.193a1.748,1.748,0,0,0,1.106-.515,1.462,1.462,0,0,0,.19-1.115l.389-.069,1.062,6.021-.4.07a1.516,1.516,0,0,0-.559-.991,1.758,1.758,0,0,0-1.209-.1l-6.763,1.194ZM19,114.147a5.315,5.315,0,0,1-2.4-1.284,5.472,5.472,0,0,1-1.435-2.335,5.572,5.572,0,0,1-.282-2.059,4.966,4.966,0,0,1,.524-1.944A5.1,5.1,0,0,1,16.8,104.75a6.551,6.551,0,0,1,2.153-1.148,5.3,5.3,0,0,1,7.013,3.548,6.426,6.426,0,0,1,.313,2.071c-.007.715,0,1.095.013,1.138a.486.486,0,0,0,.226.3,1.1,1.1,0,0,0,.51.063l.127.39-3.29,1.069-.127-.391a3.476,3.476,0,0,0,1.605-1.541,2.656,2.656,0,0,0,.092-2.022,2.313,2.313,0,0,0-1.775-1.632,6.777,6.777,0,0,0-3.525.391,7.394,7.394,0,0,0-3.225,1.791,2.259,2.259,0,0,0-.529,2.358,3.136,3.136,0,0,0,.988,1.437,5.12,5.12,0,0,0,1.828.954l-.2.619Zm3.907,7.347,2.752-1.719,1.742,2.788-2.752,1.719a1.778,1.778,0,0,1-1.161.363,1.493,1.493,0,0,1-.894-.706l-.335.209,3.24,5.185.335-.209a1.441,1.441,0,0,1-.244-1.1,1.758,1.758,0,0,1,.836-.9l5.825-3.64a1.747,1.747,0,0,1,1.167-.357,1.44,1.44,0,0,1,.881.706l.341-.214-3.24-5.185-.334.209a1.5,1.5,0,0,1,.242,1.112,1.76,1.76,0,0,1-.833.886l-2.4,1.5-1.742-2.788,2.4-1.5a1.767,1.767,0,0,1,1.161-.361,1.5,1.5,0,0,1,.893.7l.334-.209-3.24-5.185-.334.209a1.465,1.465,0,0,1,.241,1.105,1.748,1.748,0,0,1-.833.892l-5.825,3.64a1.781,1.781,0,0,1-1.171.36,1.427,1.427,0,0,1-.883-.7l-.335.209,3.24,5.184.335-.21a1.485,1.485,0,0,1-.243-1.113,1.776,1.776,0,0,1,.834-.884Zm14.5,14.952,3.582-3.34a1.768,1.768,0,0,0,.652-1.028,1.478,1.478,0,0,0-.444-1.035l.289-.269,2.37,2.542-.289.269a1.463,1.463,0,0,0-1.005-.519,1.752,1.752,0,0,0-1.077.573l-3.559,3.318a7.036,7.036,0,0,1-1.427,1.088,2.955,2.955,0,0,1-1.221.341,3.476,3.476,0,0,1-1.715-.421,6.342,6.342,0,0,1-1.712-1.342,4.625,4.625,0,0,1-1.48-3.017,3.806,3.806,0,0,1,1.435-2.787l3.77-3.516a1.748,1.748,0,0,0,.647-1.034,1.463,1.463,0,0,0-.447-1.039l.289-.27,4.169,4.472-.288.269a1.5,1.5,0,0,0-1.01-.52,1.757,1.757,0,0,0-1.072.576l-4.3,4.012a2.682,2.682,0,0,0-.974,1.582,1.972,1.972,0,0,0,.651,1.522,2.229,2.229,0,0,0,1.9.818,4.125,4.125,0,0,0,2.265-1.245Zm3.416,5.595,1.486-.963,2.28,1.656-.566,1.97a1.38,1.38,0,0,1-.089.263,1.217,1.217,0,0,1-.128.221.486.486,0,0,1-.461.247,2.908,2.908,0,0,1-.94-.536l-.232.32,4.6,3.343.232-.319a.863.863,0,0,1-.357-.486,1.862,1.862,0,0,1,.072-.825l2.559-9.873-.961-.7-8.489,5.37a2.108,2.108,0,0,1-.876.35,1.015,1.015,0,0,1-.7-.2l-.232.319,2.636,1.915.232-.319-.12-.087a1.389,1.389,0,0,1-.547-.626.7.7,0,0,1,.149-.632,1.306,1.306,0,0,1,.186-.2,2.267,2.267,0,0,1,.266-.211Zm2.086-1.353,2.744-1.766-.877,3.122-1.867-1.356Zm11.945,1.927a1.755,1.755,0,0,0,.213-1.2,1.466,1.466,0,0,0-.8-.795l.167-.359,4.058,1.893,2,7.841,1.82-3.9a1.754,1.754,0,0,0,.217-1.192,1.509,1.509,0,0,0-.812-.8l.17-.365,3.161,1.474-.166.357a1.466,1.466,0,0,0-1.127-.1,1.751,1.751,0,0,0-.784.935l-3.729,8-1.1-.511-2.744-10.7-2.782,5.966a1.758,1.758,0,0,0-.216,1.2,1.5,1.5,0,0,0,.808.8l-.166.357-3.162-1.474.167-.357a1.433,1.433,0,0,0,1.124.109,1.779,1.779,0,0,0,.786-.94l2.9-6.227Zm26.708,12.17.427-4.88a1.769,1.769,0,0,0-.2-1.2,1.478,1.478,0,0,0-1.023-.472l.035-.394,3.462.3-.035.394a1.462,1.462,0,0,0-1.094.287,1.752,1.752,0,0,0-.417,1.147l-.424,4.847a6.941,6.941,0,0,1-.333,1.763,2.987,2.987,0,0,1-.678,1.071,3.482,3.482,0,0,1-1.557.834,6.352,6.352,0,0,1-2.17.148,4.616,4.616,0,0,1-3.118-1.252,3.806,3.806,0,0,1-.8-3.032l.449-5.135a1.748,1.748,0,0,0-.212-1.2,1.463,1.463,0,0,0-1.027-.472l.034-.394,6.09.532-.035.393a1.5,1.5,0,0,0-1.1.29,1.76,1.76,0,0,0-.412,1.144l-.512,5.861a2.679,2.679,0,0,0,.335,1.826,1.973,1.973,0,0,0,1.5.695,2.229,2.229,0,0,0,1.962-.666,4.091,4.091,0,0,0,.851-2.435Zm5.877-4.78a1.742,1.742,0,0,0-.476-1.122,1.467,1.467,0,0,0-1.108-.23l-.055-.39,4.433-.624,5.946,5.488-.6-4.265a1.759,1.759,0,0,0-.468-1.119,1.507,1.507,0,0,0-1.115-.225l-.056-.4,3.455-.486.055.391a1.467,1.467,0,0,0-1,.526,1.752,1.752,0,0,0-.148,1.212l1.228,8.737-1.2.169-8.13-7.479.917,6.518a1.752,1.752,0,0,0,.471,1.122,1.5,1.5,0,0,0,1.113.231l.055.391-3.455.485-.055-.39a1.432,1.432,0,0,0,1-.521,1.768,1.768,0,0,0,.147-1.217l-.955-6.8Zm19.4,3.316a1.766,1.766,0,0,0,.622,1.046,1.5,1.5,0,0,0,1.135.074l.108.38-5.877,1.685-.109-.38a1.462,1.462,0,0,0,.924-.661,1.763,1.763,0,0,0-.027-1.218l-1.893-6.6a1.746,1.746,0,0,0-.628-1.046,1.46,1.46,0,0,0-1.129-.073l-.108-.379,5.877-1.686.111.387a1.52,1.52,0,0,0-.927.66,1.761,1.761,0,0,0,.028,1.213l1.893,6.6Zm9.941-1.65.6-.321-.961-10.2a2.314,2.314,0,0,1,.109-1.025,1.206,1.206,0,0,1,.516-.643l-.185-.349-2.837,1.509.185.348a1.96,1.96,0,0,1,.867-.233.558.558,0,0,1,.488.314,1.333,1.333,0,0,1,.1.254,1.82,1.82,0,0,1,.061.346l.543,5.45-4.4-3.7a2.771,2.771,0,0,1-.208-.21.792.792,0,0,1-.107-.15.465.465,0,0,1-.012-.486,1.467,1.467,0,0,1,.574-.455l.082-.043-.189-.357-4.94,2.627.185.349a1.231,1.231,0,0,1,.786-.124,2.506,2.506,0,0,1,.939.56l7.808,6.548Zm8.181-4.472-.248-.307a1.427,1.427,0,0,0,.59-.962,1.776,1.776,0,0,0-.5-1.119l-4.322-5.338a1.748,1.748,0,0,0-.987-.718,1.46,1.46,0,0,0-1.067.374l-.248-.307,7.345-5.948,1.852,2.288-.3.24a2.659,2.659,0,0,0-1.718-.862,3.191,3.191,0,0,0-1.88.879l-1.19.963,2.646,3.267.138-.112a1.642,1.642,0,0,0,.706-1.229,3.143,3.143,0,0,0-.648-1.675l.313-.253L128.7,140.4l-.313.254a3.125,3.125,0,0,0-1.524-.994,1.7,1.7,0,0,0-1.378.457l-.1.083,2.1,2.594c.328.405.589.6.789.592a2.5,2.5,0,0,0,1.045-.621,3.676,3.676,0,0,0,1.4-1.94,3.737,3.737,0,0,0-.4-2.363l.343-.278,1.667,3.043-7.37,5.968Zm10.029-16.161.134-.16a1.862,1.862,0,0,0,.527-1.5,2.587,2.587,0,0,0-1.013-1.483,2.516,2.516,0,0,0-1.678-.741,2.208,2.208,0,0,0-1.489.93l3.519,2.952Zm2.789,2.34-2.289-1.921.225-.268,5.522,1.109,2.564-3.056-.3-.254a1.387,1.387,0,0,1-.669.386,2.717,2.717,0,0,1-1.053-.047l-4.235-.76a3.058,3.058,0,0,0,.259-1.853,2.571,2.571,0,0,0-.906-1.5,2.4,2.4,0,0,0-2.381-.512,6.115,6.115,0,0,0-2.7,2.068l-3.831,4.565.3.254a1.46,1.46,0,0,1,.976-.57,1.752,1.752,0,0,1,1.107.518l5.26,4.414a1.775,1.775,0,0,1,.7,1,1.43,1.43,0,0,1-.4,1.057l.3.253,4-4.762-.307-.248a1.611,1.611,0,0,1-1.013.652,1.736,1.736,0,0,1-1.13-.524Zm8.75-7.263-3.434-1.9.195-.352a3.628,3.628,0,0,0,2.661.009,3.741,3.741,0,0,0,2.021-1.735,2.374,2.374,0,0,0,.343-1.494,1.3,1.3,0,0,0-.679-1.019q-.9-.5-3.194,1.264l-.018.017c-.095.072-.233.18-.419.326a5.935,5.935,0,0,1-2.592,1.359,2.9,2.9,0,0,1-.894-.026,2.82,2.82,0,0,1-.847-.309,3.107,3.107,0,0,1-1.605-2.18,4.278,4.278,0,0,1,.553-3,5.793,5.793,0,0,1,1.3-1.56,9.74,9.74,0,0,0,.88-.8.418.418,0,0,0,.042-.4,1.288,1.288,0,0,0-.444-.406l.207-.373,3.029,1.679-.177.32a3.219,3.219,0,0,0-2.327.064,3.462,3.462,0,0,0-1.765,1.587,2.1,2.1,0,0,0-.306,1.312,1.162,1.162,0,0,0,.608.9q.762.422,2.5-.964l.147-.116c.838-.659,1.448-1.1,1.83-1.341a3.485,3.485,0,0,1,1-.452,3.424,3.424,0,0,1,1.264-.077,3.368,3.368,0,0,1,1.193.4,3.257,3.257,0,0,1,1.7,2.26,4.42,4.42,0,0,1-.584,3.108,7.039,7.039,0,0,1-1.374,1.725,12.413,12.413,0,0,0-.913.893.588.588,0,0,0-.051.481.867.867,0,0,0,.361.436l-.212.376Zm5.657-16.572-6.413-2.462a1.756,1.756,0,0,1-.985-.708,1.511,1.511,0,0,1,.031-1.137l-.376-.144-2.191,5.708.368.141a1.458,1.458,0,0,1,.738-.857,1.747,1.747,0,0,1,1.214.128l6.413,2.461a1.76,1.76,0,0,1,.989.712,1.465,1.465,0,0,1-.027,1.136l.369.141,2.19-5.708-.368-.141a1.5,1.5,0,0,1-.742.862,1.759,1.759,0,0,1-1.21-.132Zm-4.554-16.517,2.716.627-.086.371a2.473,2.473,0,0,0-1.71.247,2.267,2.267,0,0,0-.833,1.453l-.156.678,7.924,1.829A1.778,1.778,0,0,0,156.7,98.2a1.49,1.49,0,0,0,.615-.959l.385.088-1.375,5.958-.385-.088a1.439,1.439,0,0,0-.127-1.12,1.76,1.76,0,0,0-1.082-.576l-7.924-1.829-.156.678a2.257,2.257,0,0,0,.113,1.666,2.5,2.5,0,0,0,1.43.964l-.089.384-2.716-.626,2.241-9.711Zm5.859-8.365,3.129.055a1.775,1.775,0,0,0,1.18-.286,1.489,1.489,0,0,0,.4-1.066l.394.007-.107,6.112-.394-.007a1.429,1.429,0,0,0-.357-1.071,1.769,1.769,0,0,0-1.179-.336l-2.489-.043-4.9,2.661a2.676,2.676,0,0,0-.863.653,1.277,1.277,0,0,0-.241.748l-.4-.007.1-5.665.4.007a1.39,1.39,0,0,0,.095.635.35.35,0,0,0,.333.2.686.686,0,0,0,.184-.023.94.94,0,0,0,.207-.087l3.877-2-3.545-1.977a1.006,1.006,0,0,0-.274-.129,1.219,1.219,0,0,0-.282-.042.427.427,0,0,0-.405.26,1.758,1.758,0,0,0-.148.776l0,.085-.4-.007.053-3.057.4.008v.085a.893.893,0,0,0,.188.563,1.838,1.838,0,0,0,.6.484Z"/><path class="cls-1" d="M70.178,136.36l-.007-.485a5.56,5.56,0,0,0,1.632-.143.55.55,0,0,0,.345-.563v-4.778a.572.572,0,0,0-.17-.483,1.136,1.136,0,0,0-.642-.125c-.074,0-.239.008-.5.026l-.366.017v-.486a8.617,8.617,0,0,0,1.669-.288,8.838,8.838,0,0,0,1.584-.61h.528v6.728a.542.542,0,0,0,.341.549,4.838,4.838,0,0,0,1.45.158v.485c-.477-.018-.955-.031-1.438-.04s-.964-.013-1.45-.013c-.67,0-1.243,0-1.714.013s-.892.02-1.262.038Zm10.737-3.577a2.761,2.761,0,0,0-.969.679,1.279,1.279,0,0,0-.329.846,1.442,1.442,0,0,0,.595,1.156,2.2,2.2,0,0,0,1.425.476,2.079,2.079,0,0,0,1.269-.382,1.116,1.116,0,0,0,.521-.916,1.217,1.217,0,0,0-.587-.958,7.481,7.481,0,0,0-1.925-.9Zm1.075-1.234a2.4,2.4,0,0,0,.739-.651,1.3,1.3,0,0,0,.246-.759,1.079,1.079,0,0,0-.442-.884,1.762,1.762,0,0,0-1.125-.35,1.8,1.8,0,0,0-1.04.289.845.845,0,0,0-.424.714,1.068,1.068,0,0,0,.464.833,6.413,6.413,0,0,0,1.582.808Zm-2.032.863a4.356,4.356,0,0,1-1.239-.952,1.608,1.608,0,0,1-.405-1.036,1.651,1.651,0,0,1,.924-1.442,4.641,4.641,0,0,1,2.427-.557,4.146,4.146,0,0,1,2.1.465,1.386,1.386,0,0,1,.8,1.216,1.253,1.253,0,0,1-.417.91,4.883,4.883,0,0,1-1.4.851,4.535,4.535,0,0,1,1.7.962,1.776,1.776,0,0,1,.542,1.3,2.023,2.023,0,0,1-.982,1.74,4.513,4.513,0,0,1-2.584.667,5.177,5.177,0,0,1-2.643-.585,1.744,1.744,0,0,1-.992-1.532,1.528,1.528,0,0,1,.535-1.157,4.5,4.5,0,0,1,1.637-.852Zm6.281,3.453.722-.556a2.778,2.778,0,0,0,.71.37,2.317,2.317,0,0,0,.753.122,2.613,2.613,0,0,0,2.023-.885,3.257,3.257,0,0,0,.8-2.273v-.033a3.438,3.438,0,0,1-1.134.958,3.021,3.021,0,0,1-1.376.318,2.689,2.689,0,0,1-1.895-.651,2.282,2.282,0,0,1-.708-1.762,2.755,2.755,0,0,1,.964-2.194,3.75,3.75,0,0,1,2.534-.829,3.629,3.629,0,0,1,2.664.932,3.538,3.538,0,0,1,.943,2.63A4.621,4.621,0,0,1,92.9,133.8a4.232,4.232,0,0,1-.987,1.444,4.732,4.732,0,0,1-1.549.967,5.223,5.223,0,0,1-1.866.326,4.411,4.411,0,0,1-1.24-.164,3.111,3.111,0,0,1-1.014-.509Zm3.476-3.023a1.291,1.291,0,0,0,.988-.406,1.51,1.51,0,0,0,.379-1.065,2.831,2.831,0,0,0-.448-1.685,1.413,1.413,0,0,0-1.206-.622,1.053,1.053,0,0,0-.912.452,2.186,2.186,0,0,0-.322,1.282,2.446,2.446,0,0,0,.41,1.5,1.315,1.315,0,0,0,1.111.545Zm8.385-.706a1.268,1.268,0,0,0-.995.417,1.644,1.644,0,0,0-.372,1.135,2.673,2.673,0,0,0,.452,1.613,1.37,1.37,0,0,0,1.151.618,1.132,1.132,0,0,0,.947-.433,1.945,1.945,0,0,0,.336-1.221,2.678,2.678,0,0,0-.4-1.573,1.3,1.3,0,0,0-1.122-.556Zm3.476-3.012-.722.549a2.693,2.693,0,0,0-.711-.364,2.357,2.357,0,0,0-.753-.122,2.619,2.619,0,0,0-2.025.885,3.24,3.24,0,0,0-.8,2.273v.033a3.54,3.54,0,0,1,1.141-.969,2.953,2.953,0,0,1,1.376-.323,2.68,2.68,0,0,1,1.892.657,2.3,2.3,0,0,1,.711,1.772,2.744,2.744,0,0,1-.964,2.185,3.762,3.762,0,0,1-2.534.828,3.632,3.632,0,0,1-2.664-.933,3.542,3.542,0,0,1-.943-2.635,4.6,4.6,0,0,1,.341-1.78,4.128,4.128,0,0,1,.993-1.442,4.657,4.657,0,0,1,1.547-.964,5.274,5.274,0,0,1,1.866-.324,4.353,4.353,0,0,1,1.239.164A3.285,3.285,0,0,1,101.576,129.124Z"/><path class="cls-1" d="M84.7,28.956a55.728,55.728,0,0,1,26.862,104.565l-1.076-2.152a53.34,53.34,0,1,0-51.347.126l-1.076,2.152A55.73,55.73,0,0,1,84.7,28.956Z"/></svg>
